<svg width="35" height="35" viewBox="0 0 35 35" fill="none" xmlns="http://www.w3.org/2000/svg">
<path d="M31.2147 5.71035H27.4426L27.5448 4.27195C27.8287 4.20993 28.0829 4.05285 28.2653 3.82669C28.4478 3.60053 28.5476 3.31885 28.5481 3.02826V2.22364C28.5481 2.09918 28.4986 1.97983 28.4106 1.89182C28.3226 1.80382 28.2032 1.75434 28.0788 1.75427H6.72507C6.60061 1.75434 6.48127 1.80382 6.39326 1.89182C6.30525 1.97983 6.25578 2.09918 6.25571 2.22364V3.02826C6.25628 3.31885 6.35606 3.60053 6.53852 3.82669C6.72098 4.05285 6.97518 4.20993 7.25908 4.27195L7.36126 5.71035H3.58918C3.03809 5.71099 2.50976 5.93019 2.12008 6.31987C1.7304 6.70955 1.5112 7.23788 1.51056 7.78897V8.67406C1.51235 10.1004 1.95486 11.4913 2.77753 12.6565C3.6002 13.8217 4.76283 14.7042 6.10631 15.1832L9.81966 16.5001C10.8299 18.2195 12.1504 19.7366 13.7141 20.9744V24.3401C13.7148 24.5944 13.7916 24.8427 13.9345 25.053C14.0775 25.2633 14.2801 25.426 14.5163 25.5202C14.1722 27.5913 13.6746 29.7016 13.3514 30.9879H12.1719C11.8341 30.9884 11.5103 31.1227 11.2715 31.3616C11.0326 31.6004 10.8983 31.9242 10.8979 32.2619V33.0666C10.8979 33.191 10.9473 33.3104 11.0353 33.3985C11.1234 33.4865 11.2427 33.5359 11.3672 33.5359H23.4366C23.5611 33.5359 23.6805 33.4865 23.7685 33.3985C23.8565 33.3104 23.906 33.191 23.906 33.0666V32.2619C23.9056 31.9242 23.7712 31.6004 23.5324 31.3616C23.2935 31.1227 22.9697 30.9884 22.632 30.9879H21.4519C21.13 29.7005 20.6312 27.5913 20.287 25.5202C20.5232 25.426 20.7258 25.2633 20.8688 25.053C21.0117 24.8427 21.0885 24.5944 21.0893 24.3401V20.9728C22.5546 19.8144 23.8086 18.4113 24.7956 16.8255C24.8619 16.7182 24.9203 16.6082 24.9834 16.5001L28.6973 15.1832C30.0408 14.7042 31.2035 13.8217 32.0262 12.6566C32.8489 11.4914 33.2915 10.1004 33.2933 8.67406V7.78897C33.2926 7.23788 33.0734 6.70955 32.6838 6.31987C32.2941 5.93019 31.7658 5.71099 31.2147 5.71035ZM27.2613 8.25833H30.7453V8.67406C30.7444 9.57418 30.4651 10.452 29.9458 11.1872C29.4264 11.9224 28.6924 12.4789 27.8444 12.7806L26.433 13.2824C26.8314 12.0491 27.0803 10.7724 27.1744 9.47975L27.2613 8.25833ZM7.19444 2.693H27.6094V3.02826C27.6093 3.11714 27.5739 3.20233 27.5111 3.26517C27.4482 3.32801 27.363 3.36338 27.2741 3.36352H7.5297C7.44082 3.36338 7.35563 3.32801 7.29279 3.26517C7.22995 3.20233 7.19458 3.11714 7.19444 3.02826V2.693ZM7.62947 9.48002C7.72228 10.7723 7.97055 12.0487 8.36892 13.2816L6.95895 12.7803C6.111 12.4786 5.37711 11.9221 4.85786 11.1869C4.33861 10.4518 4.05942 9.57408 4.05854 8.67406V8.25833H7.54257L7.62947 9.48002ZM6.42039 14.2987C5.25963 13.8845 4.25515 13.1219 3.54433 12.1151C2.83351 11.1083 2.45106 9.90649 2.44929 8.67406V7.78897C2.44964 7.48676 2.56985 7.19703 2.78355 6.98334C2.99724 6.76964 3.28697 6.64944 3.58918 6.64908H7.42805L7.47579 7.3196H3.58918C3.46469 7.3196 3.34531 7.36905 3.25728 7.45708C3.16926 7.5451 3.11981 7.66448 3.11981 7.78897V8.67406C3.12098 9.7682 3.46056 10.8352 4.09199 11.7288C4.72343 12.6223 5.6158 13.2987 6.64675 13.6652L8.79242 14.4271C8.90909 14.7117 9.03247 14.9933 9.1647 15.2704L6.42039 14.2987ZM22.632 31.9277C22.7209 31.9279 22.8061 31.9633 22.8689 32.0261C22.9317 32.0889 22.9671 32.1741 22.9673 32.263V32.5983H11.8366V32.263C11.8367 32.1741 11.8721 32.0889 11.9349 32.0261C11.9978 31.9633 12.083 31.9279 12.1719 31.9277H22.632ZM20.4863 30.989H14.3189C14.649 29.66 15.1219 27.6171 15.4523 25.6141H19.3515C19.6817 27.6171 20.1548 29.6614 20.4863 30.989ZM20.1511 24.3401C20.1509 24.429 20.1156 24.5142 20.0527 24.577C19.9899 24.6399 19.9047 24.6752 19.8158 24.6754H14.988C14.8992 24.6752 14.814 24.6399 14.7511 24.577C14.6883 24.5142 14.6529 24.429 14.6528 24.3401V21.6688C14.9384 21.8629 15.2302 22.0496 15.5301 22.2264C16.0967 22.5622 16.7432 22.7393 17.4018 22.7393C18.0604 22.7393 18.7069 22.5622 19.2735 22.2264C19.5723 22.0502 19.8635 21.8629 20.1511 21.668V24.3401ZM18.7966 21.4166C18.373 21.6627 17.8918 21.7922 17.4019 21.7922C16.912 21.7922 16.4309 21.6627 16.0072 21.4166C13.8879 20.1676 12.1035 18.4228 10.8073 16.332C9.51114 14.2412 8.74193 11.8669 8.56579 9.41324L8.20237 4.30225H26.6015L26.2381 9.41163C26.0625 11.8658 25.2935 14.2406 23.9973 16.3319C22.7011 18.4232 20.9164 20.1684 18.7966 21.4175V21.4166ZM32.3546 8.67406C32.3528 9.90646 31.9704 11.1082 31.2596 12.115C30.5489 13.1218 29.5444 13.8845 28.3837 14.2987L25.6383 15.2723C25.7703 14.9949 25.894 14.7138 26.0095 14.429L28.1582 13.6652C29.1889 13.2985 30.0811 12.6221 30.7123 11.7285C31.3435 10.835 31.6829 9.76807 31.684 8.67406V7.78897C31.684 7.66448 31.6346 7.5451 31.5466 7.45708C31.4585 7.36905 31.3392 7.3196 31.2147 7.3196H27.3281L27.3758 6.64908H31.2147C31.5169 6.64944 31.8066 6.76964 32.0203 6.98334C32.234 7.19703 32.3542 7.48676 32.3546 7.78897V8.67406Z" fill="black"/>
<path d="M9.48144 6.2135C9.41996 6.21785 9.35994 6.23429 9.30482 6.26186C9.24969 6.28943 9.20055 6.3276 9.16019 6.37418C9.11984 6.42077 9.08906 6.47485 9.06963 6.53334C9.0502 6.59183 9.04249 6.65358 9.04694 6.71505L9.15932 8.28917C9.16766 8.4075 9.22053 8.51828 9.30727 8.59919C9.39401 8.68011 9.50819 8.72516 9.62681 8.72528C9.63807 8.72528 9.64934 8.72528 9.66087 8.72528C9.72234 8.72089 9.78234 8.70444 9.83745 8.67685C9.89255 8.64927 9.94169 8.6111 9.98203 8.56452C10.0224 8.51795 10.0532 8.46388 10.0726 8.4054C10.0921 8.34692 10.0998 8.28519 10.0954 8.22373L9.98299 6.64907C9.97877 6.5875 9.96244 6.52736 9.93493 6.47212C9.90742 6.41687 9.86927 6.3676 9.82267 6.32713C9.77607 6.28666 9.72194 6.2558 9.66338 6.2363C9.60483 6.2168 9.543 6.20905 9.48144 6.2135Z" fill="black"/>
<path d="M21.6989 10.059L19.0203 9.66988L17.8222 7.24232C17.7834 7.16382 17.7235 7.09774 17.6491 7.05153C17.5747 7.00532 17.4889 6.98083 17.4014 6.98083C17.3138 6.98083 17.228 7.00532 17.1537 7.05153C17.0793 7.09774 17.0193 7.16382 16.9806 7.24232L15.7825 9.66988L13.1039 10.059C13.0172 10.0716 12.9358 10.1082 12.8688 10.1647C12.8018 10.2211 12.752 10.2952 12.7249 10.3785C12.6979 10.4618 12.6947 10.551 12.7156 10.636C12.7366 10.7211 12.781 10.7985 12.8437 10.8596L14.7818 12.7492L14.3242 15.4171C14.3095 15.5033 14.3192 15.592 14.3522 15.6731C14.3853 15.7542 14.4403 15.8244 14.5111 15.8759C14.5819 15.9273 14.6657 15.958 14.753 15.9643C14.8403 15.9707 14.9277 15.9525 15.0052 15.9119L17.4014 14.6521L19.7976 15.9127C19.8751 15.9533 19.9624 15.9715 20.0497 15.9651C20.1371 15.9588 20.2208 15.9281 20.2917 15.8767C20.3625 15.8252 20.4175 15.755 20.4505 15.6739C20.4835 15.5928 20.4932 15.5041 20.4785 15.4179L20.021 12.75L21.9591 10.8596C22.0218 10.7985 22.0661 10.7211 22.0871 10.636C22.1081 10.551 22.1049 10.4618 22.0778 10.3785C22.0508 10.2952 22.0009 10.2211 21.934 10.1647C21.867 10.1082 21.7856 10.0716 21.6989 10.059ZM19.1887 12.2492C19.1344 12.3024 19.0938 12.368 19.0704 12.4404C19.047 12.5128 19.0416 12.5898 19.0546 12.6647L19.3934 14.6384L17.6205 13.7064C17.5532 13.671 17.4783 13.6525 17.4022 13.6525C17.3261 13.6525 17.2512 13.671 17.1839 13.7064L15.411 14.6384L15.7498 12.6647C15.7628 12.5898 15.7573 12.5128 15.734 12.4404C15.7106 12.368 15.67 12.3024 15.6156 12.2492L14.1815 10.8513L16.1617 10.5646C16.237 10.5536 16.3084 10.5245 16.37 10.4798C16.4315 10.4351 16.4812 10.3761 16.515 10.3079L17.4014 8.51068L18.2878 10.3077C18.3215 10.3759 18.3713 10.4348 18.4328 10.4795C18.4943 10.5242 18.5658 10.5533 18.641 10.5644L20.6228 10.8524L19.1887 12.2492Z" fill="black"/>
</svg>
