<svg width="44" height="42" viewBox="0 0 44 42" fill="none" xmlns="http://www.w3.org/2000/svg">
<rect x="0.118164" y="12.4961" width="29.1811" height="29.1811" rx="3.43307" fill="#37C5EF" fill-opacity="0.2"/>
<g clip-path="url(#clip0_1_1056)">
<path d="M39.1842 10.7493V4.82997C39.1842 4.17185 38.6488 3.63635 37.9906 3.63635L36.6547 3.63635C36.0981 3.63635 35.6306 4.01985 35.4992 4.5361L30.0852 8.16569C28.3026 9.36077 26.226 9.99248 24.0798 9.99248H13.419C10.8176 9.99255 8.7013 12.1089 8.7013 14.7103V17.0816C8.7013 19.2706 10.2 21.1158 12.2252 21.6459V22.691C12.2252 22.9688 12.4502 23.1939 12.728 23.1939C13.0058 23.1939 13.2308 22.9688 13.2308 22.691V21.7945C13.2933 21.797 13.3559 21.7993 13.419 21.7993H14.6139H14.6146C14.6146 21.7993 14.615 21.7993 14.6153 21.7993H16.9031H16.9037C16.9037 21.7993 16.9041 21.7993 16.9044 21.7993H17.8606L16.0034 24.2927C15.8245 24.5329 15.7259 24.8301 15.7259 25.1296L15.7259 30.2679C15.7259 30.4781 15.555 30.649 15.3449 30.649H13.6119C13.4017 30.649 13.2308 30.4781 13.2308 30.2679L13.2308 24.834C13.2308 24.5563 13.0057 24.3311 12.7279 24.3311C12.4502 24.3311 12.2251 24.5563 12.2251 24.834V30.2679C12.2251 31.0326 12.8471 31.6547 13.6119 31.6547H15.3449C16.1095 31.6547 16.7316 31.0326 16.7316 30.2679V25.1296C16.7316 25.0451 16.7594 24.9611 16.8099 24.8934L19.1146 21.7993H19.8493C20.1271 21.7993 20.3522 21.5741 20.3522 21.2964C20.3522 21.0187 20.1271 20.7936 19.8493 20.7936H17.4065V10.9982H24.0798C26.4261 10.9982 28.6964 10.3076 30.6453 9.00107L35.4612 5.77249V26.0194L33.3642 24.6135C33.1334 24.4589 32.8211 24.5205 32.6665 24.7512C32.5118 24.9818 32.5734 25.2942 32.8041 25.4488L35.4993 27.2557C35.6307 27.772 36.0982 28.1555 36.6548 28.1555H37.9906C38.6488 28.1555 39.1843 27.62 39.1843 26.9619V21.0425C41.3471 20.7923 43.0321 18.9507 43.0321 16.7219V15.07C43.032 12.8412 41.347 10.9995 39.1842 10.7493ZM9.70699 17.0815V14.7102C9.70699 12.6634 11.3722 10.9982 13.419 10.9982H14.1117V20.7935H13.419C11.3722 20.7936 9.70699 19.1284 9.70699 17.0815ZM16.4008 20.7936H15.1174V10.9982H16.4008V20.7936ZM42.0263 16.7218C42.0263 18.3953 40.7909 19.7856 39.1842 20.0289V15.396C39.1842 15.1182 38.9591 14.8931 38.6814 14.8931C38.4036 14.8931 38.1785 15.1182 38.1785 15.396V26.9619C38.1785 27.0654 38.0942 27.1497 37.9906 27.1497H36.6547C36.551 27.1497 36.4668 27.0654 36.4668 26.9619V26.9617C36.4668 26.961 36.4668 26.9602 36.4668 26.9595V4.83231C36.4668 4.83157 36.4668 4.83084 36.4668 4.8301V4.82997C36.4668 4.72638 36.551 4.64204 36.6547 4.64204H37.9906C38.0942 4.64204 38.1785 4.72631 38.1785 4.82997V13.253C38.1785 13.5307 38.4036 13.7559 38.6814 13.7559C38.9591 13.7559 39.1842 13.5307 39.1842 13.253V11.7629C40.7909 12.0062 42.0263 13.3965 42.0263 15.07V16.7218Z" fill="black"/>
<path d="M33.4872 19.9863C33.4872 16.6112 30.7414 13.8654 27.3662 13.8654C23.9911 13.8654 21.2452 16.6112 21.2452 19.9863C21.2452 21.9574 22.1821 23.7137 23.6336 24.834V30.45C23.6336 30.7471 23.7701 31.0195 24.0081 31.1974C24.2461 31.3753 24.546 31.429 24.831 31.3449L27.3662 30.5962L29.9014 31.3449C29.9897 31.371 30.0794 31.3838 30.1683 31.3838C30.3663 31.3838 30.56 31.3201 30.7243 31.1974C30.9622 31.0195 31.0987 30.747 31.0987 30.45V28.7241C31.0987 28.4464 30.8737 28.2213 30.5959 28.2213C30.3181 28.2213 30.093 28.4464 30.093 28.7241V30.3529L27.6305 29.6257C27.4574 29.5745 27.2745 29.5745 27.1018 29.6256L24.6392 30.3529V25.4652C25.4608 25.8758 26.3868 26.1073 27.3661 26.1073C28.3454 26.1073 29.2714 25.8758 30.093 25.4652V26.5812C30.093 26.8589 30.3181 27.084 30.5959 27.084C30.8737 27.084 31.0987 26.8589 31.0987 26.5812V24.834C32.5503 23.7137 33.4872 21.9574 33.4872 19.9863ZM22.2509 19.9863C22.2509 17.1657 24.5457 14.871 27.3662 14.871C30.1868 14.871 32.4816 17.1657 32.4816 19.9863C32.4816 22.8069 30.1868 25.1016 27.3662 25.1016C24.5457 25.1016 22.2509 22.8069 22.2509 19.9863Z" fill="black"/>
<path d="M29.9044 18.0572H28.5461L28.1223 17.1087C27.9871 16.8061 27.6972 16.6182 27.3658 16.6182C27.0344 16.6182 26.7444 16.8062 26.6093 17.1087L26.1855 18.0572H24.8272C24.503 18.0572 24.2158 18.2394 24.0776 18.5326C23.9394 18.8258 23.9817 19.1632 24.188 19.4132L25.1707 20.6041L24.6771 22.1048C24.5642 22.4476 24.6777 22.8092 24.9662 23.0261C25.1156 23.1385 25.2894 23.195 25.4636 23.195C25.6256 23.195 25.788 23.1461 25.9316 23.0481L27.3658 22.0684L28.8 23.0481C29.0981 23.2517 29.477 23.2431 29.7653 23.0262C30.0538 22.8094 30.1673 22.4478 30.0545 22.105L29.5609 20.6042L30.5436 19.4132C30.7498 19.1632 30.7921 18.8257 30.6539 18.5326C30.5157 18.2393 30.2285 18.0572 29.9044 18.0572ZM28.7229 20.0395C28.5409 20.2602 28.4857 20.5541 28.575 20.8257L28.936 21.9231L27.8332 21.1698C27.8332 21.1698 27.8332 21.1698 27.8332 21.1697C27.5493 20.9758 27.1824 20.9758 26.8984 21.1698L25.7957 21.9231L26.1566 20.8258C26.246 20.5541 26.1908 20.2602 26.0087 20.0394L25.2028 19.063H26.3003C26.6268 19.063 26.9238 18.8704 27.0569 18.5724L27.3658 17.8809L27.6747 18.5723C27.8078 18.8704 28.1048 19.063 28.4313 19.063H29.5288L28.7229 20.0395Z" fill="black"/>
</g>
<defs>
<clipPath id="clip0_1_1056">
<rect width="34.3307" height="34.3307" fill="white" transform="translate(8.70117 0.480469)"/>
</clipPath>
</defs>
</svg>
