<svg width="44" height="42" viewBox="0 0 44 42" fill="none" xmlns="http://www.w3.org/2000/svg">
<rect x="0.401367" y="12.4961" width="29.1811" height="29.1811" rx="3.43307" fill="#EB363E" fill-opacity="0.2"/>
<g clip-path="url(#clip0_1_1095)">
<path d="M35.2033 17.341H37.598C38.1394 17.341 38.5799 16.9005 38.5799 16.3592V13.9645C38.5799 13.4231 38.1394 12.9826 37.598 12.9826H35.2033C34.6619 12.9826 34.2215 13.4231 34.2215 13.9645V16.3592C34.2215 16.9005 34.6619 17.341 35.2033 17.341ZM35.2273 13.9884H37.5741V16.3352H35.2273V13.9884ZM35.2033 23.711H37.598C38.1394 23.711 38.5799 23.2705 38.5799 22.7291V20.3344C38.5799 19.793 38.1394 19.3526 37.598 19.3526H35.2033C34.6619 19.3526 34.2215 19.793 34.2215 20.3344V22.7291C34.2215 23.2705 34.6619 23.711 35.2033 23.711ZM35.2273 20.3584H37.5741V22.7052H35.2273V20.3584ZM28.3696 17.341H30.7643C31.3057 17.341 31.7462 16.9005 31.7462 16.3592V13.9645C31.7462 13.4231 31.3057 12.9826 30.7643 12.9826H28.3696C27.8282 12.9826 27.3878 13.4231 27.3878 13.9645V16.3592C27.3878 16.9005 27.8282 17.341 28.3696 17.341ZM28.3936 13.9884H30.7404V16.3352H28.3936V13.9884ZM17.097 25.4239H14.7023C14.1609 25.4239 13.7204 25.8643 13.7204 26.4057V28.8004C13.7204 29.3418 14.1609 29.7823 14.7023 29.7823H17.097C17.6383 29.7823 18.0788 29.3418 18.0788 28.8004V26.4057C18.0788 25.8643 17.6383 25.4239 17.097 25.4239ZM17.073 28.7765H14.7262V26.4297H17.073V28.7765ZM17.097 12.9826H14.7023C14.1609 12.9826 13.7204 13.4231 13.7204 13.9645V16.3592C13.7204 16.9005 14.1609 17.341 14.7023 17.341H17.097C17.6383 17.341 18.0788 16.9005 18.0788 16.3592V13.9645C18.0788 13.423 17.6383 12.9826 17.097 12.9826ZM17.073 16.3352H14.7262V13.9884H17.073V16.3352ZM28.3696 23.5616H30.7643C31.3057 23.5616 31.7462 23.1212 31.7462 22.5798V20.1851C31.7462 19.6437 31.3057 19.2032 30.7643 19.2032H28.3696C27.8282 19.2032 27.3878 19.6437 27.3878 20.1851V22.5798C27.3878 23.1212 27.8282 23.5616 28.3696 23.5616ZM28.3936 20.209H30.7404V22.5559H28.3936V20.209ZM39.0793 2.77861H36.9292V2.00973C36.9292 1.16648 36.2432 0.480469 35.4 0.480469H35.1691C34.3259 0.480469 33.6399 1.16648 33.6399 2.00973V2.77861H18.6604V2.00973C18.6604 1.16648 17.9744 0.480469 17.1311 0.480469H16.9002C16.057 0.480469 15.371 1.16648 15.371 2.00973V2.77861H13.2209C11.8326 2.77861 10.7031 3.90811 10.7031 5.29642V32.2967C10.7031 33.6832 11.8311 34.8112 13.2176 34.8112H39.0828C40.4693 34.8112 41.5973 33.6832 41.5973 32.2967V5.29642C41.5972 3.90811 40.4677 2.77861 39.0793 2.77861ZM34.6456 2.00973C34.6456 1.72107 34.8805 1.48625 35.1691 1.48625H35.4C35.6887 1.48625 35.9235 1.72107 35.9235 2.00973V2.77861H34.6456V2.00973ZM16.3768 2.00973C16.3768 1.72107 16.6116 1.48625 16.9003 1.48625H17.1312C17.4199 1.48625 17.6547 1.72107 17.6547 2.00973V2.77861H16.3769V2.00973H16.3768ZM40.5914 32.2967C40.5914 33.1286 39.9147 33.8054 39.0828 33.8054H13.2175C12.3856 33.8054 11.7088 33.1286 11.7088 32.2967V32.2936C12.1302 32.6111 12.6539 32.7996 13.2209 32.7996H33.6104C34.2829 32.7996 34.9152 32.5377 35.3907 32.0621L40.5914 26.8614V32.2967ZM34.8776 31.1529C34.917 30.9901 34.9385 30.8204 34.9385 30.6458V27.2889C34.9385 26.6559 35.4535 26.1409 36.0865 26.1409H39.4434C39.618 26.1409 39.7877 26.1194 39.9505 26.08L34.8776 31.1529ZM40.5914 9.96527H19.1633C18.8856 9.96527 18.6604 10.1904 18.6604 10.4682C18.6604 10.7459 18.8856 10.971 19.1633 10.971H40.5914V23.9871C40.5914 24.6201 40.0764 25.1351 39.4434 25.1351H36.0865C34.8989 25.1351 33.9327 26.1014 33.9327 27.2889V30.6458C33.9327 31.2789 33.4177 31.7939 32.7847 31.7939H13.2209C12.3872 31.7939 11.7089 31.1156 11.7089 30.2818V10.971H17.1517C17.4295 10.971 17.6546 10.7459 17.6546 10.4682C17.6546 10.1904 17.4295 9.96527 17.1517 9.96527H11.7088V5.29642C11.7088 4.4627 12.3871 3.7844 13.2209 3.7844H15.371V5.26303C15.371 6.10628 16.057 6.79229 16.9002 6.79229C17.178 6.79229 17.4031 6.56713 17.4031 6.2894C17.4031 6.01167 17.178 5.78651 16.9002 5.78651C16.6116 5.78651 16.3767 5.55169 16.3767 5.26303V3.7844H33.6399V5.26303C33.6399 6.10628 34.3259 6.79229 35.1691 6.79229C35.4468 6.79229 35.672 6.56713 35.672 6.2894C35.672 6.01167 35.4468 5.78651 35.1691 5.78651C34.8805 5.78651 34.6456 5.55169 34.6456 5.26303V3.7844H39.0794C39.9131 3.7844 40.5914 4.4627 40.5914 5.29642V9.96527ZM17.097 19.2032H14.7023C14.1609 19.2032 13.7204 19.6437 13.7204 20.1851V22.5798C13.7204 23.1212 14.1609 23.5616 14.7023 23.5616H17.097C17.6383 23.5616 18.0788 23.1212 18.0788 22.5798V20.1851C18.0788 19.6436 17.6383 19.2032 17.097 19.2032ZM17.073 22.5559H14.7262V20.209H17.073V22.5559ZM21.5359 17.341H23.9306C24.472 17.341 24.9125 16.9005 24.9125 16.3592V13.9645C24.9125 13.4231 24.472 12.9826 23.9306 12.9826H21.5359C20.9946 12.9826 20.5541 13.4231 20.5541 13.9645V16.3592C20.5541 16.9005 20.9946 17.341 21.5359 17.341ZM21.5599 13.9884H23.9067V16.3352H21.5599V13.9884ZM28.393 28.7765C28.3805 28.5098 28.1604 28.2975 27.8906 28.2975C27.6129 28.2975 27.3877 28.5227 27.3877 28.8004C27.3877 29.3418 27.8282 29.7823 28.3696 29.7823H30.7643C31.3056 29.7823 31.7461 29.3418 31.7461 28.8004V26.4057C31.7461 25.8643 31.3056 25.4239 30.7643 25.4239H28.3696C27.8282 25.4239 27.3877 25.8643 27.3877 26.4057V27.0964C27.3877 27.3741 27.6129 27.5992 27.8906 27.5992C28.1683 27.5992 28.3935 27.3741 28.3935 27.0964V26.4297H30.7403V28.7765H28.393ZM21.5359 23.5616H23.9306C24.472 23.5616 24.9125 23.1212 24.9125 22.5798V20.1851C24.9125 19.6437 24.472 19.2032 23.9306 19.2032H21.5359C20.9946 19.2032 20.5541 19.6437 20.5541 20.1851V22.5798C20.5541 23.1212 20.9946 23.5616 21.5359 23.5616ZM21.5599 20.209H23.9067V22.5559H21.5599V20.209ZM21.5359 29.7823H23.9306C24.472 29.7823 24.9125 29.3418 24.9125 28.8004V26.4057C24.9125 25.8643 24.472 25.4239 23.9306 25.4239H21.5359C20.9946 25.4239 20.5541 25.8643 20.5541 26.4057V28.8004C20.5541 29.3418 20.9946 29.7823 21.5359 29.7823ZM21.5599 26.4297H23.9067V28.7765H21.5599V26.4297Z" fill="black"/>
</g>
<defs>
<clipPath id="clip0_1_1095">
<rect width="34.3307" height="34.3307" fill="white" transform="translate(8.98438 0.480469)"/>
</clipPath>
</defs>
</svg>
