<svg width="34" height="34" viewBox="0 0 34 34" fill="none" xmlns="http://www.w3.org/2000/svg">
<path d="M30.0149 14.1765C29.5548 13.909 29.1414 13.5683 28.7909 13.1678C28.8264 12.6102 28.9592 12.0632 29.1834 11.5514C29.5956 10.3883 30.0617 9.07081 29.3137 8.04656C28.5657 7.02231 27.1533 7.0549 25.9137 7.08323C25.3659 7.13959 24.8126 7.10222 24.2774 6.97273C23.9923 6.50878 23.7887 5.99946 23.6754 5.46681C23.324 4.26973 22.9231 2.91681 21.692 2.51165C20.5049 2.12915 19.4055 2.97065 18.4337 3.71015C18.0143 4.0931 17.5284 4.39606 17 4.60406C16.4661 4.39776 15.9748 4.09471 15.5508 3.71015C14.5818 2.9749 13.4867 2.1249 12.2939 2.51306C11.0656 2.91256 10.6647 4.26973 10.3105 5.46681C10.1974 5.99773 9.99575 6.50584 9.7141 6.9699C9.17792 7.09904 8.62387 7.13735 8.07502 7.08323C6.83118 7.04923 5.4301 7.0124 4.67502 8.04656C3.91993 9.08073 4.39168 10.3883 4.80535 11.55C5.03264 12.061 5.16743 12.6083 5.20343 13.1664C4.85363 13.5674 4.44067 13.9086 3.98085 14.1765C2.94385 14.8848 1.7666 15.6909 1.7666 16.9999C1.7666 18.3089 2.94385 19.1121 3.98085 19.8233C4.44056 20.0908 4.85352 20.4315 5.20343 20.832C5.17121 21.3899 5.04027 21.9377 4.81668 22.4498C4.40585 23.6115 3.94118 24.929 4.68777 25.9532C5.43435 26.9775 6.84252 26.9449 8.08777 26.9166C8.63597 26.8602 9.18978 26.8975 9.72543 27.0271C10.0093 27.4915 10.2124 28.0007 10.3261 28.533C10.6774 29.7301 11.0784 31.083 12.3094 31.4881C12.5068 31.5514 12.7128 31.5839 12.92 31.5845C13.9162 31.4415 14.8421 30.9885 15.5664 30.2896C15.9857 29.9067 16.4716 29.6037 17 29.3957C17.534 29.602 18.0253 29.9051 18.4493 30.2896C19.4197 31.0306 20.519 31.8763 21.7076 31.4867C22.9359 31.0872 23.3368 29.7301 23.6909 28.5344C23.8045 28.0025 24.0076 27.4937 24.2916 27.0299C24.8257 26.8999 25.3781 26.8615 25.925 26.9166C27.1688 26.9463 28.5699 26.9874 29.325 25.9532C30.0801 24.9191 29.6084 23.6115 29.1947 22.4484C28.9689 21.9379 28.8342 21.3918 28.7966 20.8348C29.1466 20.4334 29.5601 20.0922 30.0206 19.8247C31.0576 19.1164 32.2348 18.3089 32.2348 16.9999C32.2348 15.6909 31.0534 14.8862 30.0149 14.1765Z" fill="#E02758"/>
<path d="M15.5834 20.8958C15.4438 20.896 15.3056 20.8686 15.1768 20.8151C15.0479 20.7616 14.9309 20.6831 14.8325 20.5841L11.9992 17.7508C11.8115 17.5493 11.7094 17.2829 11.7142 17.0077C11.7191 16.7324 11.8306 16.4698 12.0253 16.2751C12.2199 16.0805 12.4825 15.9689 12.7578 15.9641C13.0331 15.9592 13.2995 16.0614 13.5009 16.2491L15.6825 18.4308L20.6125 14.7333C20.838 14.5642 21.1213 14.4916 21.4003 14.5314C21.6793 14.5713 21.931 14.7203 22.1 14.9458C22.2691 15.1712 22.3417 15.4546 22.3019 15.7335C22.262 16.0125 22.113 16.2642 21.8875 16.4333L16.2209 20.6833C16.0369 20.8211 15.8133 20.8957 15.5834 20.8958Z" fill="white"/>
</svg>
