<svg width="64" height="64" viewBox="0 0 64 64" fill="none" xmlns="http://www.w3.org/2000/svg">
<circle cx="32" cy="32" r="32" fill="white"/>
<circle cx="32" cy="32" r="31.5" stroke="url(#paint0_linear_1_1617)" stroke-opacity="0.4"/>
<path d="M46.3077 32.6116H17.6923C17.3519 32.6116 17.0769 32.3366 17.0769 31.9962C17.0769 31.6558 17.3519 31.3808 17.6923 31.3808H44.8211L41.0865 27.6462C40.8461 27.4058 40.8461 27.0154 41.0865 26.775C41.3269 26.5346 41.7173 26.5346 41.9577 26.775L46.7442 31.5616C46.9211 31.7385 46.9731 32.0019 46.8769 32.2327C46.7808 32.4616 46.5558 32.6116 46.3077 32.6116Z" fill="black"/>
<path d="M41.5154 37.4039C41.3577 37.4039 41.2 37.3443 41.0807 37.2231C40.8404 36.9828 40.8404 36.5924 41.0807 36.352L45.873 31.5597C46.1134 31.3193 46.5038 31.3193 46.7442 31.5597C46.9846 31.8001 46.9846 32.1905 46.7442 32.4308L41.9519 37.2231C41.8307 37.3443 41.673 37.4039 41.5154 37.4039Z" fill="black"/>
<defs>
<linearGradient id="paint0_linear_1_1617" x1="0" y1="0" x2="64" y2="64" gradientUnits="userSpaceOnUse">
<stop stop-color="#37C5EF"/>
<stop offset="1" stop-color="#473C6F"/>
</linearGradient>
</defs>
</svg>
