<svg width="75" height="190" viewBox="0 0 75 190" fill="none" xmlns="http://www.w3.org/2000/svg">
<g opacity="0.4">
<circle cx="5" cy="5" r="4.25" transform="matrix(-4.37114e-08 -1 -1 4.37114e-08 75 160)" stroke="white" stroke-opacity="0.5" stroke-width="1.5"/>
<circle cx="5" cy="5" r="4.25" transform="matrix(-4.37114e-08 -1 -1 4.37114e-08 45 160)" stroke="white" stroke-opacity="0.5" stroke-width="1.5"/>
<circle cx="5" cy="5" r="4.25" transform="matrix(-4.37114e-08 -1 -1 4.37114e-08 15 160)" stroke="white" stroke-opacity="0.5" stroke-width="1.5"/>
<circle cx="5" cy="5" r="4.25" transform="matrix(-4.37114e-08 -1 -1 4.37114e-08 75 190)" stroke="white" stroke-opacity="0.5" stroke-width="1.5"/>
<circle cx="5" cy="5" r="4.25" transform="matrix(-4.37114e-08 -1 -1 4.37114e-08 45 190)" stroke="white" stroke-opacity="0.5" stroke-width="1.5"/>
<circle cx="5" cy="5" r="4.25" transform="matrix(-4.37114e-08 -1 -1 4.37114e-08 15 190)" stroke="white" stroke-opacity="0.5" stroke-width="1.5"/>
<circle cx="5" cy="5" r="4.25" transform="matrix(-4.37114e-08 -1 -1 4.37114e-08 75 130)" stroke="white" stroke-opacity="0.5" stroke-width="1.5"/>
<circle cx="5" cy="5" r="4.25" transform="matrix(-4.37114e-08 -1 -1 4.37114e-08 45 130)" stroke="white" stroke-opacity="0.5" stroke-width="1.5"/>
<circle cx="5" cy="5" r="4.25" transform="matrix(-4.37114e-08 -1 -1 4.37114e-08 15 130)" stroke="white" stroke-opacity="0.5" stroke-width="1.5"/>
<circle cx="5" cy="5" r="4.25" transform="matrix(-4.37114e-08 -1 -1 4.37114e-08 75 100)" stroke="white" stroke-opacity="0.5" stroke-width="1.5"/>
<circle cx="5" cy="5" r="4.25" transform="matrix(-4.37114e-08 -1 -1 4.37114e-08 45 100)" stroke="white" stroke-opacity="0.5" stroke-width="1.5"/>
<circle cx="5" cy="5" r="4.25" transform="matrix(-4.37114e-08 -1 -1 4.37114e-08 15 100)" stroke="white" stroke-opacity="0.5" stroke-width="1.5"/>
<circle cx="5" cy="5" r="4.25" transform="matrix(-4.37114e-08 -1 -1 4.37114e-08 75 70)" stroke="white" stroke-opacity="0.5" stroke-width="1.5"/>
<circle cx="5" cy="5" r="4.25" transform="matrix(-4.37114e-08 -1 -1 4.37114e-08 45 70)" stroke="white" stroke-opacity="0.5" stroke-width="1.5"/>
<circle cx="5" cy="5" r="4.25" transform="matrix(-4.37114e-08 -1 -1 4.37114e-08 15 70)" stroke="white" stroke-opacity="0.5" stroke-width="1.5"/>
<circle cx="5" cy="5" r="4.25" transform="matrix(-4.37114e-08 -1 -1 4.37114e-08 75 40)" stroke="white" stroke-opacity="0.5" stroke-width="1.5"/>
<circle cx="5" cy="5" r="4.25" transform="matrix(-4.37114e-08 -1 -1 4.37114e-08 45 40)" stroke="white" stroke-opacity="0.5" stroke-width="1.5"/>
<circle cx="5" cy="5" r="4.25" transform="matrix(-4.37114e-08 -1 -1 4.37114e-08 15 40)" stroke="white" stroke-opacity="0.5" stroke-width="1.5"/>
<circle cx="5" cy="5" r="4.25" transform="matrix(-4.37114e-08 -1 -1 4.37114e-08 75 10)" stroke="white" stroke-opacity="0.5" stroke-width="1.5"/>
<circle cx="5" cy="5" r="4.25" transform="matrix(-4.37114e-08 -1 -1 4.37114e-08 45 10)" stroke="white" stroke-opacity="0.5" stroke-width="1.5"/>
<circle cx="5" cy="5" r="4.25" transform="matrix(-4.37114e-08 -1 -1 4.37114e-08 15 10)" stroke="white" stroke-opacity="0.5" stroke-width="1.5"/>
</g>
</svg>
