<svg width="40" height="40" viewBox="0 0 40 40" fill="none" xmlns="http://www.w3.org/2000/svg">
<circle cx="20" cy="20" r="20" fill="url(#paint0_linear_1_1161)"/>
<g clip-path="url(#clip0_1_1161)">
<path d="M21.3361 21.8028C20.9381 22.0682 20.4757 22.2085 19.999 22.2085C19.5223 22.2085 19.0599 22.0682 18.6618 21.8028L12.1055 17.4318C12.0691 17.4075 12.0337 17.3822 11.999 17.3562V24.5186C11.999 25.3398 12.6654 25.9915 13.4719 25.9915H26.526C27.3472 25.9915 27.9989 25.3251 27.9989 24.5186V17.3562C27.9642 17.3823 27.9287 17.4076 27.8922 17.4319L21.3361 21.8028Z" fill="white"/>
<path d="M12.6256 16.6518L19.1819 21.0229C19.4301 21.1883 19.7146 21.2711 19.999 21.2711C20.2835 21.2711 20.5679 21.1883 20.8161 21.0229L27.3725 16.6518C27.7648 16.3904 27.999 15.9529 27.999 15.4807C27.999 14.6688 27.3385 14.0083 26.5266 14.0083H13.4714C12.6596 14.0083 11.999 14.6688 11.999 15.4815C11.999 15.9529 12.2333 16.3904 12.6256 16.6518V16.6518Z" fill="white"/>
</g>
<defs>
<linearGradient id="paint0_linear_1_1161" x1="1.86741" y1="6.25" x2="44.774" y2="29.8511" gradientUnits="userSpaceOnUse">
<stop stop-color="#37C5EF"/>
<stop offset="1" stop-color="#4A164C"/>
</linearGradient>
<clipPath id="clip0_1_1161">
<rect width="16" height="16" fill="white" transform="translate(12 12)"/>
</clipPath>
</defs>
</svg>
