<svg width="244" height="66" viewBox="0 0 244 66" fill="none" xmlns="http://www.w3.org/2000/svg">
<path fill-rule="evenodd" clip-rule="evenodd" d="M37.1575 66C55.3829 66 70.1575 51.2254 70.1575 33C70.1575 26.8642 68.483 21.1196 65.5659 16.1981L51.4487 34.2994C49.37 37.2442 43.6361 41.3671 37.3306 34.2994L16.8065 7.02055C9.10538 13.0617 4.15753 22.453 4.15753 33C4.15753 51.2254 18.9321 66 37.1575 66ZM30.734 0.624809C30.7675 0.618623 30.801 0.612502 30.8345 0.606445L40.1889 13.512C41.517 15.0133 45.0219 17.1844 48.4172 13.8584L55.0829 5.28827C49.9215 1.94273 43.7664 0 37.1575 0C34.9595 0 32.8117 0.214891 30.734 0.624809Z" fill="white"/>
<path d="M0.999184 58.6378C-2.25751 52.4709 3.22228 46.9449 6.36926 44.9528L7.92832 48.1575C8.20549 55.9874 19.9966 55.1732 25.8575 53.7874C46.9913 49.2835 67.1724 34.5302 74.6212 27.7166C57.7834 48.7811 31.6895 59.0709 20.7472 61.5827C6.61179 65.463 2.27991 61.063 0.999184 58.6378Z" fill="url(#paint0_linear_1_1296)"/>
<path d="M96.0509 16.7991L90.4766 32.1284H86.7372L81.1396 16.7991H84.5307L87.7591 26.5541L88.6417 29.5735L89.5011 26.5773L92.7528 16.7991H96.0509ZM107.646 26.2754C107.646 26.6006 107.599 27.2277 107.553 27.5296H99.3307C99.6559 29.2019 100.678 29.9916 102.234 29.9916C103.581 29.9916 104.464 29.4806 104.789 28.5516L107.39 29.5038C106.647 31.362 104.859 32.3607 102.234 32.3607C98.3784 32.3607 96.1952 30.131 96.1952 26.3218C96.1952 22.5127 98.3087 20.283 102.048 20.283C105.671 20.283 107.646 22.4663 107.646 26.2754ZM102.025 22.6289C100.492 22.6289 99.563 23.5347 99.3075 25.2999H104.719C104.464 23.5579 103.488 22.6289 102.025 22.6289ZM117.239 20.283C119.654 20.283 121.42 21.6998 121.42 24.5102V32.1284H118.238V25.4392C118.238 23.4418 117.378 22.7915 116.17 22.7915C114.823 22.7915 113.499 23.6741 113.499 25.9967V32.1284H110.317V20.5153H113.174L113.29 22.5824C114.057 21.0263 115.497 20.283 117.239 20.283ZM132.548 20.5153H135.73V32.1284H132.897L132.781 30.131C132.014 31.6639 130.574 32.3607 128.716 32.3607C126.37 32.3607 124.628 31.1761 124.628 28.2032V20.5153H127.81V27.3903C127.81 29.2716 128.577 29.8522 129.831 29.8522C131.341 29.8522 132.548 28.9 132.548 26.7399V20.5153ZM143.584 32.3607C141.192 32.3607 139.264 31.7103 138.196 30.131L140.054 28.2264C140.704 29.62 141.958 30.0381 143.538 30.0381C144.908 30.0381 145.674 29.62 145.674 28.9929C145.674 28.4587 145.047 28.1335 143.352 27.7851C139.728 27.0651 138.521 25.9502 138.521 24.0224C138.521 22.1411 140.309 20.283 143.747 20.283C146.418 20.283 147.858 21.0727 148.926 22.745L146.952 24.4173C146.278 23.2095 145.349 22.6056 143.793 22.6056C142.492 22.6056 141.703 23.1166 141.703 23.7205C141.703 24.3476 142.283 24.7425 144.234 25.1373C147.625 25.8109 148.88 26.8328 148.88 28.7606C148.88 30.851 147.045 32.3607 143.584 32.3607ZM154.857 29.5503H162.94V32.1284H151.652V16.7991H154.857V29.5503ZM175.89 30.2006C176.169 30.2006 176.448 30.1774 176.68 30.1077L176.448 32.0355C176.03 32.2445 175.519 32.3607 174.938 32.3607C173.544 32.3607 172.592 31.8729 172.267 30.6187C171.57 31.7568 170.107 32.3607 168.156 32.3607C165.949 32.3607 164.556 31.3387 164.556 29.3877C164.556 27.5761 165.973 26.2986 169.085 25.718L171.872 25.1838V24.6263C171.872 23.3953 171.152 22.6056 169.898 22.6056C168.551 22.6056 167.575 23.1166 167.227 24.5799L164.695 23.5115C165.183 21.5372 166.925 20.283 169.758 20.283C172.987 20.283 175.031 21.6766 175.031 24.5566V29.318C175.031 29.9219 175.286 30.2006 175.89 30.2006ZM169.155 30.2006C170.362 30.2006 171.872 29.5735 171.872 28.3425V27.1348L169.387 27.6922C168.365 27.9245 167.831 28.2961 167.831 29.0625C167.831 29.8058 168.318 30.2006 169.155 30.2006ZM187.114 32.1284L183.908 26.9954L181.795 29.2484V32.1284H178.613V15.4287H181.795V25.8341L186.835 20.5153H190.435L186.068 25.0676L190.714 32.1284H187.114ZM196.932 32.3607C194.54 32.3607 192.612 31.7103 191.543 30.131L193.401 28.2264C194.052 29.62 195.306 30.0381 196.885 30.0381C198.256 30.0381 199.022 29.62 199.022 28.9929C199.022 28.4587 198.395 28.1335 196.7 27.7851C193.076 27.0651 191.869 25.9502 191.869 24.0224C191.869 22.1411 193.657 20.283 197.094 20.283C199.765 20.283 201.206 21.0727 202.274 22.745L200.3 24.4173C199.626 23.2095 198.697 22.6056 197.141 22.6056C195.84 22.6056 195.051 23.1166 195.051 23.7205C195.051 24.3476 195.631 24.7425 197.582 25.1373C200.973 25.8109 202.227 26.8328 202.227 28.7606C202.227 30.851 200.393 32.3607 196.932 32.3607ZM211.686 20.283C214.102 20.283 215.867 21.6998 215.867 24.5102V32.1284H212.685V25.4392C212.685 23.4418 211.826 22.7915 210.618 22.7915C209.271 22.7915 207.947 23.6741 207.947 25.9967V32.1284H204.765V15.4287H207.947V22.4895C208.69 21.003 210.037 20.283 211.686 20.283ZM229.84 20.5153L225.148 32.8484C224.01 36.0072 222.663 37.1221 220.154 37.1221C218.877 37.1221 217.948 36.8434 217.205 36.2162L217.994 33.9633C218.505 34.544 219.109 34.6833 219.945 34.6833C220.828 34.6833 221.432 34.4046 221.85 33.2897L222.268 32.291L220.991 29.2716L217.437 20.5153H220.967L223.151 27.4832L223.778 29.8058L224.474 27.3438L226.611 20.5153H229.84ZM242.008 30.2006C242.287 30.2006 242.565 30.1774 242.798 30.1077L242.565 32.0355C242.147 32.2445 241.636 32.3607 241.056 32.3607C239.662 32.3607 238.71 31.8729 238.385 30.6187C237.688 31.7568 236.225 32.3607 234.274 32.3607C232.067 32.3607 230.674 31.3387 230.674 29.3877C230.674 27.5761 232.09 26.2986 235.203 25.718L237.99 25.1838V24.6263C237.99 23.3953 237.27 22.6056 236.016 22.6056C234.668 22.6056 233.693 23.1166 233.345 24.5799L230.813 23.5115C231.301 21.5372 233.043 20.283 235.876 20.283C239.105 20.283 241.149 21.6766 241.149 24.5566V29.318C241.149 29.9219 241.404 30.2006 242.008 30.2006ZM235.272 30.2006C236.48 30.2006 237.99 29.5735 237.99 28.3425V27.1348L235.505 27.6922C234.483 27.9245 233.948 28.2961 233.948 29.0625C233.948 29.8058 234.436 30.2006 235.272 30.2006Z" fill="white"/>
<path d="M83.1951 44.6581V52.3228H81.9525V44.6581H83.1951ZM96.3962 44.6581V52.3228H94.9213L91.96 47.4917L91.2167 46.0749H91.2051L91.2516 47.3756V52.3228H90.1135V44.6581H91.5768L94.5265 49.4775L95.2813 50.906H95.293L95.2465 49.6053V44.6581H96.3962ZM108.849 45.7265H104.552V47.9446H107.92V49.0246H104.552V52.3228H103.31V44.6581H108.849V45.7265ZM118.123 44.5419C120.353 44.5419 121.746 46.0517 121.746 48.4904C121.746 50.9292 120.353 52.4389 118.123 52.4389C115.905 52.4389 114.511 50.9292 114.511 48.4904C114.511 46.0517 115.905 44.5419 118.123 44.5419ZM118.123 45.622C116.683 45.622 115.812 46.6672 115.812 48.4904C115.812 50.3137 116.683 51.3589 118.123 51.3589C119.575 51.3589 120.446 50.3137 120.446 48.4904C120.446 46.6672 119.575 45.622 118.123 45.622ZM133.669 44.6581V45.7265H131.045V52.3228H129.802V45.7265H127.178V44.6581H133.669ZM141.045 51.2543H145.516V52.3228H139.803V44.6581H145.354V45.7265H141.045V47.933H144.413V48.9782H141.045V51.2543ZM158.047 50.2905C157.571 51.6956 156.375 52.4389 154.877 52.4389C152.659 52.4389 151.265 50.9292 151.265 48.4904C151.265 46.0517 152.67 44.5419 154.865 44.5419C156.387 44.5419 157.467 45.1807 157.931 46.4233L156.758 46.9459C156.456 46.04 155.887 45.622 154.935 45.622C153.507 45.622 152.566 46.6672 152.566 48.4904C152.566 50.3021 153.437 51.3589 154.889 51.3589C155.864 51.3589 156.572 50.8711 156.863 49.8956L158.047 50.2905ZM169.307 44.6581H170.562V52.3228H169.307V48.9782H165.521V52.3228H164.279V44.6581H165.521V47.9098H169.307V44.6581Z" fill="white" fill-opacity="0.6"/>
<defs>
<linearGradient id="paint0_linear_1_1296" x1="0.000121852" y1="45.3858" x2="74.6615" y2="27.7165" gradientUnits="userSpaceOnUse">
<stop stop-color="#DF1E5A"/>
<stop offset="1" stop-color="#EBB12D"/>
</linearGradient>
</defs>
</svg>
