<svg width="40" height="40" viewBox="0 0 40 40" fill="none" xmlns="http://www.w3.org/2000/svg">
<circle cx="20" cy="20" r="20" fill="url(#paint0_linear_1_1190)"/>
<g clip-path="url(#clip0_1_1190)">
<path d="M27.9843 16.704C27.9468 15.8539 27.8093 15.2694 27.6124 14.763C27.4092 14.2254 27.0967 13.7441 26.6872 13.344C26.2871 12.9377 25.8026 12.6219 25.2712 12.422C24.7619 12.225 24.1805 12.0875 23.3303 12.0501C22.4738 12.0094 22.2019 12 20.0296 12C17.8573 12 17.5854 12.0094 16.7321 12.0469C15.882 12.0844 15.2975 12.222 14.7912 12.4188C14.2535 12.6219 13.7722 12.9345 13.3721 13.344C12.9658 13.7441 12.6501 14.2286 12.45 14.7599C12.2531 15.2694 12.1156 15.8507 12.0781 16.7009C12.0375 17.5574 12.0281 17.8293 12.0281 20.0016C12.0281 22.1739 12.0375 22.4458 12.075 23.2991C12.1124 24.1492 12.25 24.7337 12.447 25.2401C12.6501 25.7777 12.9658 26.259 13.3721 26.6591C13.7722 27.0654 14.2567 27.3812 14.788 27.5812C15.2975 27.7781 15.8788 27.9156 16.7291 27.9531C17.5823 27.9907 17.8543 27.9999 20.0266 27.9999C22.1989 27.9999 22.4708 27.9907 23.3241 27.9531C24.1742 27.9156 24.7587 27.7781 25.265 27.5812C26.3403 27.1654 27.1904 26.3153 27.6062 25.2401C27.803 24.7306 27.9406 24.1492 27.9781 23.2991C28.0155 22.4458 28.025 22.1739 28.025 20.0016C28.025 17.8293 28.0218 17.5574 27.9843 16.704ZM26.5435 23.2366C26.509 24.018 26.3778 24.4399 26.2684 24.7212C25.9995 25.4183 25.4463 25.9715 24.7493 26.2403C24.468 26.3497 24.043 26.481 23.2646 26.5153C22.4207 26.5529 22.1676 26.5622 20.0328 26.5622C17.898 26.5622 17.6417 26.5529 16.8009 26.5153C16.0195 26.481 15.5975 26.3497 15.3162 26.2403C14.9693 26.1121 14.6536 25.909 14.3973 25.6433C14.1316 25.3838 13.9285 25.0713 13.8003 24.7244C13.6909 24.4431 13.5596 24.018 13.5253 23.2397C13.4877 22.3958 13.4784 22.1426 13.4784 20.0078C13.4784 17.873 13.4877 17.6167 13.5253 16.776C13.5596 15.9946 13.6909 15.5726 13.8003 15.2913C13.9285 14.9443 14.1316 14.6287 14.4005 14.3723C14.6598 14.1066 14.9724 13.9034 15.3194 13.7754C15.6007 13.666 16.0258 13.5347 16.804 13.5003C17.6479 13.4628 17.9012 13.4534 20.0359 13.4534C22.1738 13.4534 22.4269 13.4628 23.2678 13.5003C24.0492 13.5347 24.4712 13.666 24.7525 13.7754C25.0993 13.9034 25.4151 14.1066 25.6713 14.3723C25.937 14.6317 26.1402 14.9443 26.2684 15.2913C26.3778 15.5726 26.509 15.9976 26.5435 16.776C26.5809 17.6199 26.5903 17.873 26.5903 20.0078C26.5903 22.1426 26.5809 22.3927 26.5435 23.2366Z" fill="white"/>
<path d="M20.0301 15.8916C17.761 15.8916 15.9199 17.7325 15.9199 20.0018C15.9199 22.271 17.761 24.112 20.0301 24.112C22.2993 24.112 24.1403 22.271 24.1403 20.0018C24.1403 17.7325 22.2993 15.8916 20.0301 15.8916ZM20.0301 22.668C18.558 22.668 17.3639 21.474 17.3639 20.0018C17.3639 18.5296 18.558 17.3356 20.0301 17.3356C21.5023 17.3356 22.6963 18.5296 22.6963 20.0018C22.6963 21.474 21.5023 22.668 20.0301 22.668V22.668Z" fill="white"/>
<path d="M25.262 15.7288C25.262 16.2587 24.8324 16.6884 24.3024 16.6884C23.7725 16.6884 23.3428 16.2587 23.3428 15.7288C23.3428 15.1988 23.7725 14.7693 24.3024 14.7693C24.8324 14.7693 25.262 15.1988 25.262 15.7288V15.7288Z" fill="white"/>
</g>
<defs>
<linearGradient id="paint0_linear_1_1190" x1="1.86741" y1="6.25" x2="44.774" y2="29.8511" gradientUnits="userSpaceOnUse">
<stop stop-color="#37C5EF"/>
<stop offset="1" stop-color="#4A164C"/>
</linearGradient>
<clipPath id="clip0_1_1190">
<rect width="16" height="16" fill="white" transform="translate(12 12)"/>
</clipPath>
</defs>
</svg>
