<svg width="602" height="962" viewBox="0 0 602 962" fill="none" xmlns="http://www.w3.org/2000/svg">
<path d="M3.21695 3C0.293487 53.7774 25.7501 159.511 150.964 176.227C189.419 181.361 266.868 160.59 271.726 92.6468C271.276 71.3023 262.685 23.4907 231.922 3H121.28C88.4469 27.9393 39.5127 98.8479 106.437 182.968C121.954 200.492 165.671 239.991 216.405 257.786C255.984 273.738 328.431 321.819 355.382 361.587C369.999 383.156 394.106 443.685 373.597 513.245C354.032 568.516 296.148 664.229 221.127 604.914C196.165 585.178 159.734 525.917 270.376 449.886C314.228 419.751 412.187 353.094 507.177 389.223C558.225 408.77 642.646 479.274 571.943 604.914C556.876 630.527 512.304 690.112 454.554 723.544C414.975 746.911 337.097 817 289.266 875.202L214 960" stroke="#ECB02E" stroke-opacity="0.08" stroke-width="5"/>
</svg>
