<svg width="40" height="40" viewBox="0 0 40 40" fill="none" xmlns="http://www.w3.org/2000/svg">
<circle cx="20" cy="20" r="20" fill="url(#paint0_linear_1_1182)"/>
<path d="M26.3999 26.3999V21.7119C26.3999 19.4079 25.9039 17.6479 23.2159 17.6479C21.9199 17.6479 21.0559 18.3519 20.7039 19.0239H20.6719V17.8559H18.1279V26.3999H20.7839V22.1599C20.7839 21.0399 20.9919 19.9679 22.3679 19.9679C23.7279 19.9679 23.7439 21.2319 23.7439 22.2239V26.3839H26.3999V26.3999Z" fill="white"/>
<path d="M13.8076 17.8562H16.4636V26.4002H13.8076V17.8562Z" fill="white"/>
<path d="M15.1356 13.6001C14.2876 13.6001 13.5996 14.2881 13.5996 15.1361C13.5996 15.9841 14.2876 16.6881 15.1356 16.6881C15.9836 16.6881 16.6716 15.9841 16.6716 15.1361C16.6716 14.2881 15.9836 13.6001 15.1356 13.6001V13.6001Z" fill="white"/>
<defs>
<linearGradient id="paint0_linear_1_1182" x1="1.86741" y1="6.25" x2="44.774" y2="29.8511" gradientUnits="userSpaceOnUse">
<stop stop-color="#37C5EF"/>
<stop offset="1" stop-color="#4A164C"/>
</linearGradient>
</defs>
</svg>
