<svg width="40" height="40" viewBox="0 0 40 40" fill="none" xmlns="http://www.w3.org/2000/svg">
<circle cx="20" cy="20" r="20" fill="url(#paint0_linear_1_1152)"/>
<path d="M19.9997 12C16.8045 12 14.2051 14.5994 14.2051 17.7946C14.2051 21.7598 19.3907 27.581 19.6115 27.8269C19.8188 28.0579 20.1809 28.0575 20.3879 27.8269C20.6087 27.581 25.7943 21.7598 25.7943 17.7946C25.7942 14.5994 23.1948 12 19.9997 12ZM19.9997 20.71C18.3921 20.71 17.0843 19.4021 17.0843 17.7946C17.0843 16.187 18.3921 14.8792 19.9997 14.8792C21.6072 14.8792 22.915 16.187 22.915 17.7946C22.915 19.4022 21.6072 20.71 19.9997 20.71Z" fill="white"/>
<defs>
<linearGradient id="paint0_linear_1_1152" x1="1.86741" y1="6.25" x2="44.774" y2="29.8511" gradientUnits="userSpaceOnUse">
<stop stop-color="#37C5EF"/>
<stop offset="1" stop-color="#4A164C"/>
</linearGradient>
</defs>
</svg>
