<svg width="244" height="66" viewBox="0 0 244 66" fill="none" xmlns="http://www.w3.org/2000/svg">
<path fill-rule="evenodd" clip-rule="evenodd" d="M37.1572 66C55.3826 66 70.1572 51.2254 70.1572 33C70.1572 26.8642 68.4826 21.1195 65.5656 16.198L51.4484 34.2992C49.3697 37.2441 43.6358 41.3669 37.3303 34.2992L16.8063 7.02048C9.10511 13.0616 4.15723 22.453 4.15723 33C4.15723 51.2254 18.9318 66 37.1572 66ZM30.748 0.621974C30.7768 0.616689 30.8055 0.611452 30.8342 0.606262L40.1886 13.5118C41.5166 15.0131 45.0216 17.1842 48.4169 13.8582L55.0825 5.2882C49.9211 1.94271 43.766 0 37.1572 0C34.9643 0 32.8213 0.2139 30.748 0.621974Z" fill="url(#paint0_linear_282_395)"/>
<path d="M0.999062 58.6378C-2.25763 52.4709 3.22216 46.9449 6.36914 44.9528L7.9282 48.1575C8.20537 55.9874 19.9964 55.1732 25.8573 53.7874C46.9912 49.2835 67.1723 34.5302 74.6211 27.7166C57.7833 48.7811 31.6894 59.0709 20.7471 61.5827C6.61166 65.463 2.27978 61.063 0.999062 58.6378Z" fill="url(#paint1_linear_282_395)"/>
<path d="M96.0509 16.7992L90.4766 32.1285H86.7372L81.1396 16.7992H84.5307L87.7591 26.5542L88.6417 29.5736L89.5011 26.5775L92.7528 16.7992H96.0509ZM107.646 26.2755C107.646 26.6007 107.599 27.2278 107.553 27.5297H99.3307C99.6559 29.202 100.678 29.9917 102.234 29.9917C103.581 29.9917 104.464 29.4807 104.789 28.5517L107.39 29.504C106.647 31.3621 104.859 32.3608 102.234 32.3608C98.3784 32.3608 96.1952 30.1311 96.1952 26.322C96.1952 22.5129 98.3087 20.2831 102.048 20.2831C105.671 20.2831 107.646 22.4664 107.646 26.2755ZM102.025 22.629C100.492 22.629 99.563 23.5348 99.3075 25.3H104.719C104.464 23.558 103.488 22.629 102.025 22.629ZM117.239 20.2831C119.654 20.2831 121.42 21.6999 121.42 24.5103V32.1285H118.238V25.4394C118.238 23.4419 117.378 22.7916 116.17 22.7916C114.823 22.7916 113.499 23.6742 113.499 25.9968V32.1285H110.317V20.5154H113.174L113.29 22.5825C114.057 21.0264 115.497 20.2831 117.239 20.2831ZM132.548 20.5154H135.73V32.1285H132.897L132.781 30.1311C132.014 31.664 130.574 32.3608 128.716 32.3608C126.37 32.3608 124.628 31.1763 124.628 28.2033V20.5154H127.81V27.3904C127.81 29.2717 128.577 29.8524 129.831 29.8524C131.341 29.8524 132.548 28.9001 132.548 26.74V20.5154ZM143.584 32.3608C141.192 32.3608 139.264 31.7105 138.196 30.1311L140.054 28.2265C140.704 29.6201 141.958 30.0382 143.538 30.0382C144.908 30.0382 145.674 29.6201 145.674 28.993C145.674 28.4588 145.047 28.1336 143.352 27.7852C139.728 27.0652 138.521 25.9503 138.521 24.0226C138.521 22.1412 140.309 20.2831 143.747 20.2831C146.418 20.2831 147.858 21.0728 148.926 22.7451L146.952 24.4174C146.278 23.2096 145.349 22.6058 143.793 22.6058C142.492 22.6058 141.703 23.1167 141.703 23.7206C141.703 24.3477 142.283 24.7426 144.234 25.1374C147.625 25.811 148.88 26.8329 148.88 28.7607C148.88 30.8511 147.045 32.3608 143.584 32.3608ZM154.857 29.5504H162.94V32.1285H151.652V16.7992H154.857V29.5504ZM175.89 30.2008C176.169 30.2008 176.448 30.1775 176.68 30.1079L176.448 32.0356C176.03 32.2447 175.519 32.3608 174.938 32.3608C173.544 32.3608 172.592 31.8731 172.267 30.6188C171.57 31.7569 170.107 32.3608 168.156 32.3608C165.949 32.3608 164.556 31.3388 164.556 29.3878C164.556 27.5762 165.973 26.2987 169.085 25.7181L171.872 25.1839V24.6265C171.872 23.3955 171.152 22.6058 169.898 22.6058C168.551 22.6058 167.575 23.1167 167.227 24.58L164.695 23.5116C165.183 21.5374 166.925 20.2831 169.758 20.2831C172.987 20.2831 175.031 21.6767 175.031 24.5568V29.3182C175.031 29.922 175.286 30.2008 175.89 30.2008ZM169.155 30.2008C170.362 30.2008 171.872 29.5736 171.872 28.3427V27.1349L169.387 27.6923C168.365 27.9246 167.831 28.2962 167.831 29.0627C167.831 29.8059 168.318 30.2008 169.155 30.2008ZM187.114 32.1285L183.908 26.9955L181.795 29.2485V32.1285H178.613V15.4288H181.795V25.8342L186.835 20.5154H190.435L186.068 25.0677L190.714 32.1285H187.114ZM196.932 32.3608C194.54 32.3608 192.612 31.7105 191.543 30.1311L193.401 28.2265C194.052 29.6201 195.306 30.0382 196.885 30.0382C198.256 30.0382 199.022 29.6201 199.022 28.993C199.022 28.4588 198.395 28.1336 196.7 27.7852C193.076 27.0652 191.869 25.9503 191.869 24.0226C191.869 22.1412 193.657 20.2831 197.094 20.2831C199.765 20.2831 201.206 21.0728 202.274 22.7451L200.3 24.4174C199.626 23.2096 198.697 22.6058 197.141 22.6058C195.84 22.6058 195.051 23.1167 195.051 23.7206C195.051 24.3477 195.631 24.7426 197.582 25.1374C200.973 25.811 202.227 26.8329 202.227 28.7607C202.227 30.8511 200.393 32.3608 196.932 32.3608ZM211.686 20.2831C214.102 20.2831 215.867 21.6999 215.867 24.5103V32.1285H212.685V25.4394C212.685 23.4419 211.826 22.7916 210.618 22.7916C209.271 22.7916 207.947 23.6742 207.947 25.9968V32.1285H204.765V15.4288H207.947V22.4896C208.69 21.0032 210.037 20.2831 211.686 20.2831ZM229.84 20.5154L225.148 32.8486C224.01 36.0073 222.663 37.1222 220.154 37.1222C218.877 37.1222 217.948 36.8435 217.205 36.2164L217.994 33.9634C218.505 34.5441 219.109 34.6834 219.945 34.6834C220.828 34.6834 221.432 34.4047 221.85 33.2899L222.268 32.2911L220.991 29.2717L217.437 20.5154H220.967L223.151 27.4833L223.778 29.8059L224.474 27.3439L226.611 20.5154H229.84ZM242.008 30.2008C242.287 30.2008 242.565 30.1775 242.798 30.1079L242.565 32.0356C242.147 32.2447 241.636 32.3608 241.056 32.3608C239.662 32.3608 238.71 31.8731 238.385 30.6188C237.688 31.7569 236.225 32.3608 234.274 32.3608C232.067 32.3608 230.674 31.3388 230.674 29.3878C230.674 27.5762 232.09 26.2987 235.203 25.7181L237.99 25.1839V24.6265C237.99 23.3955 237.27 22.6058 236.016 22.6058C234.668 22.6058 233.693 23.1167 233.345 24.58L230.813 23.5116C231.301 21.5374 233.043 20.2831 235.876 20.2831C239.105 20.2831 241.149 21.6767 241.149 24.5568V29.3182C241.149 29.922 241.404 30.2008 242.008 30.2008ZM235.272 30.2008C236.48 30.2008 237.99 29.5736 237.99 28.3427V27.1349L235.505 27.6923C234.483 27.9246 233.948 28.2962 233.948 29.0627C233.948 29.8059 234.436 30.2008 235.272 30.2008Z" fill="url(#paint2_linear_282_395)"/>
<path d="M83.1951 44.658V52.3227H81.9525V44.658H83.1951ZM96.3962 44.658V52.3227H94.9213L91.96 47.4916L91.2167 46.0748H91.2051L91.2516 47.3755V52.3227H90.1135V44.658H91.5768L94.5265 49.4775L95.2813 50.9059H95.293L95.2465 49.6052V44.658H96.3962ZM108.849 45.7264H104.552V47.9445H107.92V49.0246H104.552V52.3227H103.31V44.658H108.849V45.7264ZM118.123 44.5419C120.353 44.5419 121.746 46.0516 121.746 48.4904C121.746 50.9291 120.353 52.4388 118.123 52.4388C115.905 52.4388 114.511 50.9291 114.511 48.4904C114.511 46.0516 115.905 44.5419 118.123 44.5419ZM118.123 45.6219C116.683 45.6219 115.812 46.6671 115.812 48.4904C115.812 50.3136 116.683 51.3588 118.123 51.3588C119.575 51.3588 120.446 50.3136 120.446 48.4904C120.446 46.6671 119.575 45.6219 118.123 45.6219ZM133.669 44.658V45.7264H131.045V52.3227H129.802V45.7264H127.178V44.658H133.669ZM141.045 51.2543H145.516V52.3227H139.803V44.658H145.354V45.7264H141.045V47.9329H144.413V48.9781H141.045V51.2543ZM158.047 50.2904C157.571 51.6956 156.375 52.4388 154.877 52.4388C152.659 52.4388 151.265 50.9291 151.265 48.4904C151.265 46.0516 152.67 44.5419 154.865 44.5419C156.387 44.5419 157.467 45.1806 157.931 46.4232L156.758 46.9458C156.456 46.04 155.887 45.6219 154.935 45.6219C153.507 45.6219 152.566 46.6671 152.566 48.4904C152.566 50.302 153.437 51.3588 154.889 51.3588C155.864 51.3588 156.572 50.8711 156.863 49.8955L158.047 50.2904ZM169.307 44.658H170.562V52.3227H169.307V48.9781H165.521V52.3227H164.279V44.658H165.521V47.9097H169.307V44.658Z" fill="black" fill-opacity="0.6"/>
<defs>
<linearGradient id="paint0_linear_282_395" x1="7.23845" y1="10.3125" x2="78.0343" y2="49.2543" gradientUnits="userSpaceOnUse">
<stop stop-color="#37C5EF"/>
<stop offset="1" stop-color="#4A164C"/>
</linearGradient>
<linearGradient id="paint1_linear_282_395" x1="-2.18454e-07" y1="45.3858" x2="74.6614" y2="27.7165" gradientUnits="userSpaceOnUse">
<stop stop-color="#DF1E5A"/>
<stop offset="1" stop-color="#EBB12D"/>
</linearGradient>
<linearGradient id="paint2_linear_282_395" x1="88.4241" y1="15.3473" x2="107.36" y2="78.2283" gradientUnits="userSpaceOnUse">
<stop stop-color="#37C5EF"/>
<stop offset="1" stop-color="#4A164C"/>
</linearGradient>
</defs>
</svg>
