<svg width="15" height="15" viewBox="0 0 15 15" fill="none" xmlns="http://www.w3.org/2000/svg">
<g clip-path="url(#clip0_287_665)">
<path d="M8.67001 9.07754C8.32171 9.30974 7.91713 9.43249 7.5 9.43249C7.0829 9.43249 6.67832 9.30974 6.33002 9.07754L0.593215 5.25289C0.561387 5.23167 0.530379 5.20955 0.5 5.1868V11.4539C0.5 12.1724 1.08311 12.7427 1.78879 12.7427H13.2112C13.9297 12.7427 14.5 12.1596 14.5 11.4539V5.18677C14.4695 5.20957 14.4385 5.23175 14.4066 5.25299L8.67001 9.07754Z" fill="white"/>
<path d="M1.04824 4.57033L6.78504 8.39501C7.00221 8.53979 7.25109 8.61217 7.49997 8.61217C7.74888 8.61217 7.99779 8.53976 8.21496 8.39501L13.9518 4.57033C14.2951 4.3416 14.5 3.95878 14.5 3.54562C14.5 2.8352 13.922 2.25726 13.2116 2.25726H1.78836C1.07796 2.25729 0.5 2.83523 0.5 3.5463C0.5 3.95878 0.704969 4.3416 1.04824 4.57033Z" fill="white"/>
</g>
<defs>
<clipPath id="clip0_287_665">
<rect width="14" height="14" fill="white" transform="translate(0.5 0.5)"/>
</clipPath>
</defs>
</svg>
