<svg width="38" height="38" viewBox="0 0 38 38" fill="none" xmlns="http://www.w3.org/2000/svg">
<circle cx="19" cy="19" r="18.5" stroke="white"/>
<circle cx="19" cy="19" r="16" fill="white" fill-opacity="0.2"/>
<g clip-path="url(#clip0_37_157)">
<path d="M24.0371 20.8766C23.3024 20.8766 22.5811 20.7617 21.8975 20.5358C21.5625 20.4216 21.1507 20.5264 20.9463 20.7363L19.597 21.7549C18.0322 20.9196 17.0683 19.9561 16.2445 18.403L17.2331 17.0889C17.4899 16.8324 17.582 16.4577 17.4717 16.1062C17.2448 15.419 17.1295 14.6979 17.1295 13.9629C17.1296 13.432 16.6976 13 16.1667 13H13.9629C13.432 13 13 13.432 13 13.9629C13 20.0488 17.9512 25 24.0371 25C24.5681 25 25 24.568 25 24.0371V21.8395C25 21.3086 24.568 20.8766 24.0371 20.8766Z" fill="white"/>
</g>
<defs>
<clipPath id="clip0_37_157">
<rect width="12" height="12" fill="white" transform="translate(13 13)"/>
</clipPath>
</defs>
</svg>
