<svg width="40" height="40" viewBox="0 0 40 40" fill="none" xmlns="http://www.w3.org/2000/svg">
<circle cx="20" cy="20" r="20" fill="url(#paint0_linear_1_1144)"/>
<g clip-path="url(#clip0_1_1144)">
<path d="M26.716 22.5039C25.7365 22.5039 24.7746 22.3507 23.8632 22.0495C23.4165 21.8971 22.8675 22.0369 22.5949 22.3168L20.7959 23.6749C18.7095 22.5612 17.4243 21.2765 16.3258 19.2058L17.644 17.4536C17.9864 17.1116 18.1093 16.612 17.9621 16.1433C17.6596 15.227 17.5059 14.2656 17.5059 13.2856C17.506 12.5777 16.93 12.0017 16.2221 12.0017H13.2838C12.5758 12.0017 11.9999 12.5777 11.9999 13.2856C11.9999 21.4002 18.6015 28.0017 26.716 28.0017C27.424 28.0017 27.9999 27.4258 27.9999 26.7178V23.7877C27.9999 23.0798 27.4239 22.5039 26.716 22.5039Z" fill="white"/>
</g>
<defs>
<linearGradient id="paint0_linear_1_1144" x1="1.86741" y1="6.25" x2="44.774" y2="29.8511" gradientUnits="userSpaceOnUse">
<stop stop-color="#37C5EF"/>
<stop offset="1" stop-color="#4A164C"/>
</linearGradient>
<clipPath id="clip0_1_1144">
<rect width="16" height="16" fill="white" transform="translate(12 12)"/>
</clipPath>
</defs>
</svg>
