<svg width="44" height="42" viewBox="0 0 44 42" fill="none" xmlns="http://www.w3.org/2000/svg">
<rect x="0.424805" y="12.4961" width="29.1811" height="29.1811" rx="3.43307" fill="#47366A" fill-opacity="0.2"/>
<g clip-path="url(#clip0_1_1073)">
<path d="M41.5917 33.8054H40.3287V23.9488C40.3287 23.671 40.1036 23.4459 39.8258 23.4459C39.548 23.4459 39.3229 23.671 39.3229 23.9488V33.8054H36.7969V19.9111H39.3229V21.6019C39.3229 21.8797 39.548 22.1048 39.8258 22.1048C40.1036 22.1048 40.3287 21.8797 40.3287 21.6019V19.6765C40.3287 19.2513 39.9828 18.9054 39.5576 18.9054H36.5622C36.137 18.9054 35.7911 19.2513 35.7911 19.6765V33.8054H34.9427V26.012C34.9427 25.5868 34.5968 25.2409 34.1716 25.2409H31.1763C30.7511 25.2409 30.4052 25.5868 30.4052 26.012V33.8054H29.5568V22.5685C29.5568 22.1433 29.2109 21.7974 28.7857 21.7974H25.7904C25.3652 21.7974 25.0193 22.1433 25.0193 22.5685V33.8054H24.1709V31.1234C24.1709 30.8456 23.9458 30.6205 23.668 30.6205C23.3902 30.6205 23.1651 30.8456 23.1651 31.1234V33.8054H20.6391V19.8012H23.1651V28.7765C23.1651 29.0543 23.3902 29.2794 23.668 29.2794C23.9458 29.2794 24.1709 29.0543 24.1709 28.7765V19.5665C24.1709 19.1413 23.8249 18.7954 23.3998 18.7954H20.4044C19.9792 18.7954 19.6333 19.1413 19.6333 19.5665V33.8054H18.785V25.9249C18.785 25.4997 18.439 25.1538 18.0139 25.1538H15.0184C14.5933 25.1538 14.2473 25.4997 14.2473 25.9249V33.8054H12.9843C12.7065 33.8054 12.4814 34.0306 12.4814 34.3083C12.4814 34.5861 12.7065 34.8112 12.9843 34.8112H41.5917C41.8695 34.8112 42.0946 34.5861 42.0946 34.3083C42.0946 34.0306 41.8694 33.8054 41.5917 33.8054ZM17.7791 33.8054H15.2531V26.1595H17.7791V33.8054ZM28.551 33.8054H26.025V22.8032H28.551V33.8054ZM33.9369 33.8054H31.4109V26.2466H33.9369V33.8054Z" fill="black"/>
<path d="M17.2305 11.8815C17.2305 12.9609 17.5994 13.9551 18.2165 14.747L17.7563 15.1921C17.3996 14.9584 16.9738 14.8221 16.5165 14.8221C15.2656 14.8221 14.2478 15.8398 14.2478 17.0908C14.2478 18.3418 15.2656 19.3596 16.5165 19.3596C17.7675 19.3596 18.7853 18.3418 18.7853 17.0908C18.7853 16.6605 18.6649 16.2578 18.456 15.9146L18.9152 15.4705C19.7257 16.1461 20.7673 16.5535 21.9024 16.5535C23.2257 16.5535 24.4213 15.9996 25.2722 15.1127L30.6155 19.2297C30.4811 19.5193 30.4055 19.8415 30.4055 20.1811C30.4055 21.4321 31.4233 22.4499 32.6743 22.4499C33.9253 22.4499 34.9431 21.4321 34.9431 20.1811C34.9431 19.7243 34.8069 19.2989 34.5736 18.9425L36.883 16.5574C37.2265 16.7667 37.6295 16.8874 38.0603 16.8874C39.3113 16.8874 40.3291 15.8696 40.3291 14.6186C40.3291 13.3676 39.3113 12.3498 38.0603 12.3498C36.8093 12.3498 35.7915 13.3676 35.7915 14.6186C35.7915 15.0754 35.9277 15.5009 36.161 15.8573L33.8515 18.2423C33.5081 18.0331 33.1051 17.9123 32.6743 17.9123C32.1259 17.9123 31.6223 18.108 31.2296 18.4331L25.8876 14.3171C26.3229 13.6074 26.5744 12.7733 26.5744 11.8814C26.5744 11.2686 26.4566 10.6715 26.2244 10.1063C26.1188 9.84947 25.8251 9.72703 25.5681 9.83244C25.3112 9.93805 25.1885 10.2319 25.2941 10.4888C25.4763 10.932 25.5687 11.4005 25.5687 11.8815C25.5687 12.5424 25.392 13.1625 25.0847 13.6985L23.9613 12.833C24.0957 12.5434 24.1712 12.2211 24.1712 11.8814C24.1712 10.6304 23.1534 9.61264 21.9024 9.61264C20.6515 9.61264 19.6337 10.6304 19.6337 11.8814C19.6337 12.3118 19.7541 12.7145 19.963 13.0576L18.944 14.0432C18.4995 13.4366 18.2362 12.6893 18.2362 11.8814C18.2362 11.3922 18.3331 10.9255 18.5079 10.4984H18.7838C19.2378 10.4984 19.607 10.1291 19.607 9.67507V9.02714C20.2358 8.52016 21.0338 8.21521 21.9024 8.21521C22.6541 8.21521 23.3771 8.44178 23.9932 8.87044C24.2212 9.02909 24.5345 8.97283 24.6932 8.74485C24.8518 8.51688 24.7955 8.20347 24.5676 8.04483C23.7821 7.49829 22.8605 7.20936 21.9024 7.20936C21.0686 7.20936 20.2854 7.42963 19.607 7.8141V6.35056C19.607 5.89654 19.2377 5.52722 18.7838 5.52722H10.1453C9.69131 5.52722 9.32205 5.89654 9.32205 6.35056V9.6752C9.32205 10.1292 9.69138 10.4985 10.1453 10.4985H17.4417C17.3054 10.9358 17.2305 11.3999 17.2305 11.8815ZM16.5165 18.3538C15.8201 18.3538 15.2536 17.7872 15.2536 17.0908C15.2536 16.3944 15.8201 15.8278 16.5165 15.8278C17.213 15.8278 17.7795 16.3944 17.7795 17.0908C17.7795 17.7872 17.213 18.3538 16.5165 18.3538ZM38.0603 13.3556C38.7567 13.3556 39.3233 13.9222 39.3233 14.6186C39.3233 15.315 38.7567 15.8816 38.0603 15.8816C37.3639 15.8816 36.7973 15.315 36.7973 14.6186C36.7973 13.9222 37.3639 13.3556 38.0603 13.3556ZM32.6744 18.9181C33.3708 18.9181 33.9374 19.4847 33.9374 20.1811C33.9374 20.8775 33.3708 21.4441 32.6744 21.4441C31.978 21.4441 31.4114 20.8775 31.4114 20.1811C31.4114 19.4847 31.978 18.9181 32.6744 18.9181ZM21.9024 10.6185C22.5989 10.6185 23.1654 11.1851 23.1654 11.8815C23.1654 12.5779 22.5989 13.1445 21.9024 13.1445C21.206 13.1445 20.6395 12.5779 20.6395 11.8815C20.6395 11.1851 21.2061 10.6185 21.9024 10.6185ZM20.6628 13.7801C21.0194 14.0138 21.4452 14.1502 21.9025 14.1502C22.4509 14.1502 22.9545 13.9545 23.3472 13.6294L24.4704 14.4948C23.8084 15.1454 22.9017 15.5476 21.9025 15.5476C21.0508 15.5476 20.2667 15.2549 19.6437 14.7659L20.6628 13.7801ZM10.3278 9.49269V6.53294H18.6013V9.49269H10.3278Z" fill="black"/>
<path d="M12.7836 7.50989H11.5733C11.2955 7.50989 11.0704 7.73505 11.0704 8.01278C11.0704 8.29051 11.2955 8.51567 11.5733 8.51567H12.7837C13.0615 8.51567 13.2866 8.29051 13.2866 8.01278C13.2866 7.73505 13.0614 7.50989 12.7836 7.50989Z" fill="black"/>
<path d="M17.3559 7.50989H14.3543C14.0765 7.50989 13.8514 7.73505 13.8514 8.01278C13.8514 8.29051 14.0765 8.51567 14.3543 8.51567H17.3559C17.6337 8.51567 17.8588 8.29051 17.8588 8.01278C17.8588 7.73505 17.6337 7.50989 17.3559 7.50989Z" fill="black"/>
<path d="M36.9647 10.2653C36.9706 10.2777 36.9771 10.2898 36.984 10.3016L37.6353 11.4116C37.7256 11.5654 37.8907 11.66 38.0691 11.66C38.2475 11.66 38.4125 11.5654 38.5028 11.4115L39.1542 10.3014C39.1612 10.2896 39.1675 10.2775 39.1734 10.2653C41.4078 9.75608 43.0238 7.73365 43.0238 5.43517C43.0238 4.06838 42.4793 2.7956 41.4905 1.85144C40.5023 0.907744 39.204 0.423292 37.8351 0.485851C36.6111 0.542309 35.454 1.05398 34.5771 1.9266C33.7002 2.79935 33.1829 3.95392 33.1208 5.17763C32.9979 7.59915 34.6116 9.73013 36.9647 10.2653ZM34.1253 5.22872C34.227 3.225 35.8769 1.58303 37.8815 1.49063C38.9734 1.44014 40.0082 1.82669 40.7959 2.57888C41.584 3.33148 42.018 4.34591 42.018 5.43524C42.018 7.28179 40.7098 8.90472 38.9074 9.29416C38.62 9.35625 38.3793 9.55808 38.2661 9.82743L38.0691 10.1634L37.8719 9.82743C37.7588 9.55814 37.5175 9.35625 37.2293 9.29382C35.332 8.88306 34.0266 7.17343 34.1253 5.22872Z" fill="black"/>
<path d="M37.5573 5.93797H38.5806C38.8137 5.93797 39.0034 6.12766 39.0034 6.3608C39.0034 6.59401 38.8137 6.7837 38.5806 6.7837H36.7778C36.5 6.7837 36.2749 7.00886 36.2749 7.28659C36.2749 7.56432 36.5 7.78948 36.7778 7.78948H37.5661V8.23665C37.5661 8.51438 37.7912 8.73954 38.069 8.73954C38.3467 8.73954 38.5718 8.51438 38.5718 8.23665V7.78948H38.5806C39.3683 7.78948 40.0092 7.1486 40.0092 6.3608C40.0092 5.57307 39.3683 4.93219 38.5806 4.93219H37.5573C37.3241 4.93219 37.1344 4.7425 37.1344 4.50929C37.1344 4.27615 37.3241 4.08646 37.5573 4.08646H39.3601C39.6379 4.08646 39.863 3.8613 39.863 3.58357C39.863 3.30584 39.6379 3.08068 39.3601 3.08068H38.5718V2.63351C38.5718 2.35578 38.3467 2.13062 38.069 2.13062C37.7912 2.13062 37.5661 2.35578 37.5661 2.63351V3.08068H37.5573C36.7696 3.08068 36.1287 3.72156 36.1287 4.50936C36.1287 5.29709 36.7696 5.93797 37.5573 5.93797Z" fill="black"/>
</g>
<defs>
<clipPath id="clip0_1_1073">
<rect width="34.3307" height="34.3307" fill="white" transform="translate(9.00781 0.480469)"/>
</clipPath>
</defs>
</svg>
