<svg width="48" height="48" viewBox="0 0 48 48" fill="none" xmlns="http://www.w3.org/2000/svg">
<g id="Frame" clip-path="url(#clip0_1_792)">
<g id="Group">
<path id="Vector" d="M5.01769 36.4128H0.745911V0.703674H6.54982M7.95717 0.703674H28.8929V4.33182M41.7092 27.4696V16.9464M33.2191 47.2963H13.5622V11.5872H41.7092V15.539" stroke="#37C5EF" stroke-width="1.6" stroke-miterlimit="10"/>
<path id="Vector_2" d="M37.4368 11.5879V7.96002H9.28986V43.669H13.5619" stroke="#37C5EF" stroke-width="1.6" stroke-miterlimit="10"/>
<path id="Vector_3" d="M33.1644 7.95975V4.3316H5.0174V19.5873M5.0174 20.9946V40.0408H9.29011M17.2314 23.7813V18.0256C17.2314 16.471 18.4915 15.2109 20.0461 15.2109C21.6007 15.2109 22.8608 16.471 22.8608 18.0256V23.7813M34.1196 23.7813V14.554M25.6755 23.7813V14.554M17.2314 19.6984H22.8608M43.6198 31.0865L43.8774 28.7233L39.991 26.4755L38.0591 27.8859H35.1508L33.219 26.4755L29.3325 28.7234L29.5902 31.0867L28.1386 33.5988L25.9561 34.5584V39.0451L28.1385 40.0046L29.5903 42.517L29.3326 44.8803L33.2191 47.1281L35.1581 45.7124H38.0521L39.9912 47.1281L43.8776 44.8802L43.62 42.5169L45.0716 40.0046L47.254 39.0449V34.5586L45.0716 33.5988C44.5357 32.6717 44.1554 32.0136 43.6198 31.0865ZM29.3264 19.1676H25.6755V15.2108H29.3264C30.4191 15.2108 31.3049 16.0966 31.3049 17.1892C31.3049 18.2819 30.4191 19.1676 29.3264 19.1676Z" stroke="#37C5EF" stroke-width="1.6" stroke-miterlimit="10"/>
<path id="Vector_4" d="M32.0675 33.602L29.5689 36.8019L32.0675 40.0017M41.1438 33.602L43.6424 36.8019L41.1438 40.0017M39.2547 34.7588L33.9565 38.8449M16.9647 29.5919H18.372M19.7794 29.5919H21.1867" stroke="#37C5EF" stroke-width="1.6" stroke-miterlimit="10"/>
</g>
</g>
<defs>
<clipPath id="clip0_1_792">
<rect width="48" height="48" fill="white"/>
</clipPath>
</defs>
</svg>
