<svg width="52" height="52" viewBox="0 0 52 52" fill="none" xmlns="http://www.w3.org/2000/svg">
<g id="Frame">
<g id="Group">
<g id="Code_x2C__coding_x2C__mobile_x2C__development">
<g id="XMLID_1809_">
<g id="XMLID_1832_">
<g id="Group_2">
<g id="Group_3">
<path id="Vector" d="M28.4197 6.64505H23.581C23.1359 6.64505 22.7746 6.28376 22.7746 5.8386C22.7746 5.39344 23.1359 5.03215 23.581 5.03215H28.4197C28.8649 5.03215 29.2262 5.39344 29.2262 5.8386C29.2262 6.28376 28.8649 6.64505 28.4197 6.64505Z" fill="#37C5EF"/>
</g>
</g>
</g>
<g id="XMLID_1831_">
<g id="Group_4">
<g id="Group_5">
<path id="Vector_2" d="M34.8711 50.1936H17.1291C14.9049 50.1936 13.0969 48.3839 13.0969 46.1613V18.7419C13.0969 18.2968 13.4582 17.9355 13.9033 17.9355C14.3485 17.9355 14.7098 18.2968 14.7098 18.7419V46.1613C14.7098 47.4952 15.7952 48.5807 17.1291 48.5807H34.8711C36.2049 48.5807 37.2904 47.4952 37.2904 46.1613V18.7419C37.2904 18.2968 37.6517 17.9355 38.0969 17.9355C38.542 17.9355 38.9033 18.2968 38.9033 18.7419V46.1613C38.9033 48.3839 37.0952 50.1936 34.8711 50.1936Z" fill="#37C5EF"/>
</g>
</g>
</g>
<g id="XMLID_1830_">
<g id="Group_6">
<g id="Group_7">
<path id="Vector_3" d="M38.0969 24.387C37.6517 24.387 37.2904 24.0257 37.2904 23.5805V5.8386C37.2904 4.50473 36.2049 3.41925 34.8711 3.41925H17.1291C15.7952 3.41925 14.7098 4.50473 14.7098 5.8386V23.5805C14.7098 24.0257 14.3485 24.387 13.9033 24.387C13.4582 24.387 13.0969 24.0257 13.0969 23.5805V5.8386C13.0969 3.61602 14.9049 1.80634 17.1291 1.80634H34.8711C37.0952 1.80634 38.9033 3.61602 38.9033 5.8386V23.5805C38.9033 24.0257 38.542 24.387 38.0969 24.387Z" fill="#37C5EF"/>
</g>
</g>
</g>
<g id="XMLID_1816_">
<g id="XMLID_1824_">
<g id="Group_8">
<g id="Group_9">
<path id="Vector_4" d="M42.9355 9.95131C42.4904 9.95131 42.1291 9.67066 42.1291 9.2255V9.06421C42.1291 8.61905 42.4904 8.25776 42.9355 8.25776C43.3807 8.25776 43.742 8.61905 43.742 9.06421C43.742 9.50937 43.3807 9.95131 42.9355 9.95131Z" fill="#37C5EF"/>
</g>
</g>
</g>
<g id="XMLID_1818_">
<g id="Group_10">
<g id="Group_11">
<path id="Vector_5" d="M42.9355 13.1771C42.4904 13.1771 42.1291 12.8965 42.1291 12.4513V12.29C42.1291 11.8449 42.4904 11.4836 42.9355 11.4836C43.3807 11.4836 43.742 11.8449 43.742 12.29C43.742 12.7352 43.3807 13.1771 42.9355 13.1771Z" fill="#37C5EF"/>
</g>
</g>
</g>
<g id="XMLID_1817_">
<g id="Group_12">
<g id="Group_13">
<path id="Vector_6" d="M42.9355 16.4029C42.4904 16.4029 42.1291 16.1223 42.1291 15.6771V15.5158C42.1291 15.0707 42.4904 14.7094 42.9355 14.7094C43.3807 14.7094 43.742 15.0707 43.742 15.5158C43.742 15.961 43.3807 16.4029 42.9355 16.4029V16.4029Z" fill="#37C5EF"/>
</g>
</g>
</g>
</g>
<g id="XMLID_1820_">
<g id="XMLID_1823_">
<g id="Group_14">
<g id="Group_15">
<path id="Vector_7" d="M9.06445 37.2091C8.61929 37.2091 8.258 36.9285 8.258 36.4833V36.322C8.258 35.8769 8.61929 35.5156 9.06445 35.5156C9.50961 35.5156 9.8709 35.8769 9.8709 36.322C9.8709 36.7672 9.50961 37.2091 9.06445 37.2091Z" fill="#37C5EF"/>
</g>
</g>
</g>
<g id="XMLID_1822_">
<g id="Group_16">
<g id="Group_17">
<path id="Vector_8" d="M9.06445 40.4349C8.61929 40.4349 8.258 40.1543 8.258 39.7091V39.5478C8.258 39.1027 8.61929 38.7414 9.06445 38.7414C9.50961 38.7414 9.8709 39.1027 9.8709 39.5478C9.8709 39.993 9.50961 40.4349 9.06445 40.4349Z" fill="#37C5EF"/>
</g>
</g>
</g>
<g id="XMLID_1821_">
<g id="Group_18">
<g id="Group_19">
<path id="Vector_9" d="M9.06445 43.6607C8.61929 43.6607 8.258 43.3801 8.258 42.9349V42.7736C8.258 42.3285 8.61929 41.9672 9.06445 41.9672C9.50961 41.9672 9.8709 42.3285 9.8709 42.7736C9.8709 43.2188 9.50961 43.6607 9.06445 43.6607Z" fill="#37C5EF"/>
</g>
</g>
</g>
</g>
<g id="XMLID_1815_">
<g id="Group_20">
<g id="Group_21">
<path id="Vector_10" d="M40.2598 43.7417C40.2033 43.7417 40.1453 43.7369 40.0888 43.724C39.6533 43.6304 39.3775 43.2014 39.4711 42.7659L40.0033 40.2982C40.0678 39.995 40.3017 39.7579 40.6017 39.6853C41.363 39.5014 42.1049 39.1917 42.8065 38.7643C43.0662 38.603 43.4001 38.6079 43.6598 38.7724L45.2565 39.7933L46.2453 38.7966L45.2243 37.2127C45.0565 36.953 45.0533 36.6191 45.213 36.3562C45.6404 35.6546 45.9501 34.9127 46.1323 34.1514C46.2049 33.8514 46.4404 33.6191 46.742 33.5514L48.5807 33.1433V31.7611L46.7436 31.353C46.442 31.2853 46.2065 31.053 46.134 30.753C45.9517 29.9917 45.6404 29.2498 45.2146 28.5482C45.0533 28.2853 45.0565 27.953 45.2243 27.6933L46.2469 26.095L45.2598 25.1079L43.6614 26.1304C43.4017 26.2966 43.0694 26.2998 42.8082 26.1385C42.1049 25.7111 41.363 25.4014 40.6033 25.2175C40.3017 25.145 40.0694 24.9062 40.0049 24.6046L39.6082 22.774H38.9033C38.4582 22.774 38.0969 22.4127 38.0969 21.9675C38.0969 21.5224 38.4582 21.1611 38.9033 21.1611H40.2582C40.6372 21.1611 40.9662 21.4272 41.0452 21.7982L41.4759 23.7869C42.0662 23.9659 42.6453 24.2079 43.2033 24.5095L44.9356 23.4014C45.2549 23.1982 45.6711 23.2433 45.9404 23.5111L47.8453 25.4143C48.113 25.682 48.1582 26.0998 47.9533 26.4191L46.8452 28.1514C47.1469 28.7111 47.3888 29.2901 47.5678 29.882L49.5598 30.324C49.9307 30.4062 50.1936 30.7353 50.1936 31.1127V33.7901C50.1936 34.1675 49.9307 34.4966 49.5614 34.5772L47.5694 35.0191C47.3904 35.6111 47.1485 36.1901 46.8469 36.7482L47.9533 38.4643C48.1598 38.782 48.1162 39.2014 47.8485 39.4691L45.9436 41.3885C45.6743 41.6579 45.2565 41.703 44.9372 41.4998L43.2049 40.3917C42.6452 40.6933 42.0678 40.9353 41.4775 41.1143L41.0469 43.103C40.9646 43.4837 40.6291 43.7417 40.2598 43.7417Z" fill="#37C5EF"/>
</g>
</g>
</g>
<g id="XMLID_1810_">
<g id="Group_22">
<g id="Group_23">
<path id="Vector_11" d="M41.1475 36.61C40.8895 36.61 40.6346 36.4842 40.4782 36.2536C40.2298 35.8842 40.3282 35.3826 40.6992 35.1342C41.5943 34.531 42.1298 33.5277 42.1298 32.4519C42.1298 30.6729 40.683 29.2261 38.904 29.2261C38.6846 29.2261 38.4669 29.2487 38.2588 29.2906C37.8266 29.3777 37.3959 29.1003 37.3056 28.6616C37.2169 28.2245 37.4975 27.7987 37.9346 27.71C38.2508 27.6471 38.5766 27.6132 38.904 27.6132C41.5717 27.6132 43.7427 29.7842 43.7427 32.4519C43.7427 34.0665 42.9411 35.5697 41.5959 36.4729C41.4588 36.5648 41.3024 36.61 41.1475 36.61V36.61Z" fill="#37C5EF"/>
</g>
</g>
</g>
<g id="XMLID_1293_">
<g id="Group_24">
<g id="Group_25">
<path id="Vector_12" d="M13.0967 24.3865C10.429 24.3865 8.258 22.2156 8.258 19.5478C8.258 17.9268 9.06445 16.422 10.4161 15.5188C10.7822 15.2736 11.2854 15.3704 11.5338 15.743C11.7806 16.1123 11.6806 16.6139 11.3096 16.8607C10.4096 17.4639 9.8709 18.4672 9.8709 19.5478C9.8709 21.3268 11.3177 22.7736 13.0967 22.7736C13.3128 22.7736 13.5257 22.7527 13.729 22.7107C14.1564 22.622 14.5903 22.9043 14.679 23.343C14.7677 23.7801 14.4838 24.2043 14.0467 24.2914C13.7386 24.3543 13.4225 24.3865 13.0967 24.3865V24.3865Z" fill="#37C5EF"/>
</g>
</g>
</g>
<g id="XMLID_1811_">
<g id="Group_26">
<g id="Group_27">
<path id="Vector_13" d="M13.0971 30.8386H11.7423C11.3633 30.8386 11.0342 30.5725 10.9552 30.2015L10.5246 28.2128C9.93424 28.0338 9.35521 27.7918 8.79715 27.4902L7.06489 28.5983C6.74392 28.8015 6.3294 28.758 6.06005 28.4886L4.15521 26.5854C3.88747 26.3176 3.84231 25.8999 4.04715 25.5805L5.15521 23.8483C4.8536 23.2886 4.61166 22.7096 4.43263 22.1176L2.44069 21.6757C2.06973 21.5934 1.80682 21.2644 1.80682 20.887V18.2096C1.80682 17.8321 2.06973 17.5031 2.43908 17.4225L4.43102 16.9805C4.61005 16.3886 4.85199 15.8096 5.1536 15.2515L4.04876 13.5338C3.84231 13.216 3.88586 12.7967 4.1536 12.5289L6.05844 10.6096C6.32457 10.3386 6.74392 10.2934 7.06489 10.4983L8.79715 11.6063C9.35682 11.3047 9.93424 11.0628 10.5246 10.8838L10.9552 8.89505C11.0488 8.45796 11.4859 8.18054 11.9133 8.27731C12.3488 8.37086 12.6246 8.79989 12.531 9.23538L11.9988 11.7031C11.9342 12.0063 11.7004 12.2434 11.4004 12.316C10.6391 12.4999 9.89715 12.8096 9.19392 13.237C8.93263 13.3983 8.60037 13.3934 8.34069 13.2289L6.74392 12.208L5.7536 13.2047L6.77457 14.7886C6.94392 15.0483 6.94715 15.3821 6.78586 15.6451C6.35844 16.3467 6.04876 17.0886 5.8665 17.8499C5.79392 18.1499 5.55844 18.3821 5.25682 18.4499L3.41973 18.8563V20.2386L5.25682 20.6467C5.55844 20.7144 5.79392 20.9467 5.8665 21.2467C6.04876 22.008 6.36005 22.7499 6.78586 23.4515C6.94715 23.7144 6.94392 24.0467 6.77618 24.3063L5.7536 25.9031L6.74069 26.8902L8.33908 25.8676C8.59876 25.7031 8.93263 25.6999 9.19231 25.8596C9.89553 26.287 10.6375 26.5967 11.3971 26.7805C11.6988 26.8531 11.931 27.0918 11.9955 27.3934L12.3923 29.2257H13.0971C13.5423 29.2257 13.9036 29.587 13.9036 30.0321C13.9036 30.4773 13.5423 30.8386 13.0971 30.8386V30.8386Z" fill="#37C5EF"/>
</g>
</g>
</g>
<g id="XMLID_1813_">
<g id="XMLID_1890_">
<g id="Group_28">
<g id="Group_29">
<path id="Vector_14" d="M25.1945 30.0324C25.13 30.0324 25.0655 30.0243 24.9993 30.0082C24.5655 29.9002 24.3042 29.4631 24.4122 29.0308L26.0251 22.5792C26.1316 22.1453 26.5622 21.884 27.0026 21.9921C27.4364 22.1002 27.6977 22.5372 27.5897 22.9695L25.9768 29.4211C25.8864 29.7889 25.5574 30.0324 25.1945 30.0324V30.0324Z" fill="#37C5EF"/>
</g>
</g>
</g>
<g id="XMLID_1888_">
<g id="Group_30">
<g id="Group_31">
<path id="Vector_15" d="M30.0326 30.0325C29.8262 30.0325 29.6197 29.9535 29.4617 29.797C29.1471 29.4825 29.1471 28.9712 29.4617 28.6567L32.1181 26.0002L29.4633 23.3454C29.1488 23.0309 29.1488 22.5196 29.4633 22.2051C29.7778 21.8906 30.2891 21.8906 30.6036 22.2051L33.8294 25.4309C34.1439 25.7454 34.1439 26.2567 33.8294 26.5712L30.6036 29.797C30.4455 29.9535 30.2391 30.0325 30.0326 30.0325Z" fill="#37C5EF"/>
</g>
</g>
</g>
<g id="XMLID_1887_">
<g id="Group_32">
<g id="Group_33">
<path id="Vector_16" d="M21.9684 30.0322C21.7619 30.0322 21.5555 29.9532 21.3974 29.7967L18.1716 26.5709C17.8571 26.2564 17.8571 25.7451 18.1716 25.4306L21.3974 22.2048C21.7119 21.8903 22.2232 21.8903 22.5377 22.2048C22.8523 22.5193 22.8523 23.0306 22.5377 23.3451L19.8829 25.9999L22.5377 28.6548C22.8523 28.9693 22.8523 29.4806 22.5377 29.7951C22.3813 29.9532 22.1748 30.0322 21.9684 30.0322V30.0322Z" fill="#37C5EF"/>
</g>
</g>
</g>
</g>
</g>
</g>
</g>
</g>
</svg>
