<svg width="48" height="48" viewBox="0 0 48 48" fill="none" xmlns="http://www.w3.org/2000/svg">
<g id="Frame" clip-path="url(#clip0_1_838)">
<g id="Group">
<path id="Vector" d="M8.65397 4.99027C8.65397 3.68995 7.59628 2.63227 6.29587 2.63227C4.99547 2.63227 3.9375 3.68995 3.9375 4.99027C3.9375 6.29077 4.99547 7.34836 6.29587 7.34836C7.59591 7.34836 8.65397 6.29077 8.65397 4.99027ZM5.34375 4.99027C5.34375 4.46555 5.77116 4.03852 6.29587 4.03852C6.82059 4.03852 7.24781 4.46555 7.24781 4.99027C7.24781 5.51508 6.82078 5.94211 6.29597 5.94211C5.77116 5.94211 5.34375 5.51508 5.34375 4.99027ZM11.8982 7.34836C13.1986 7.34836 14.2566 6.29077 14.2566 4.99027C14.2566 3.68995 13.1986 2.63227 11.8982 2.63227C10.5978 2.63227 9.54019 3.68986 9.54019 4.99027C9.54019 6.29077 10.5978 7.34836 11.8982 7.34836ZM11.8982 4.03852C12.4234 4.03852 12.8503 4.46555 12.8503 4.99027C12.8503 5.51508 12.423 5.94211 11.8982 5.94211C11.3734 5.94211 10.9464 5.51508 10.9464 4.99027C10.9464 4.46555 11.3734 4.03852 11.8982 4.03852ZM17.5009 7.34836C18.8009 7.34836 19.8589 6.29077 19.8589 4.99027C19.8589 3.68995 18.8009 2.63227 17.5009 2.63227C16.2005 2.63227 15.1425 3.68986 15.1425 4.99027C15.1425 6.29077 16.2005 7.34836 17.5009 7.34836ZM17.5009 4.03852C18.0256 4.03852 18.4526 4.46555 18.4526 4.99027C18.4526 5.51508 18.0256 5.94211 17.5009 5.94211C16.9757 5.94211 16.5488 5.51508 16.5488 4.99027C16.5488 4.46555 16.9757 4.03852 17.5009 4.03852ZM25.2814 5.69339H42.4061C42.7947 5.69339 43.1093 5.37886 43.1093 4.99027C43.1093 4.60167 42.7947 4.28714 42.4061 4.28714H25.2814C24.8928 4.28714 24.5782 4.60177 24.5782 4.99027C24.5782 5.37877 24.8928 5.69339 25.2814 5.69339Z" fill="#37C5EF"/>
<path id="Vector_2" d="M45.0641 0.0937042H2.93587C1.31728 0.0937042 0 1.41061 0 3.02958V42.1468C0 43.7655 1.31719 45.0827 2.93587 45.0827H45.0641C46.6827 45.0827 48 43.7655 48 42.1468V3.02958C48 1.41052 46.6828 0.0937042 45.0641 0.0937042ZM45.0641 43.6765H2.93587C2.0925 43.6765 1.40625 42.9902 1.40625 42.1468V9.88692H5.32584C5.71434 9.88692 6.02897 9.5723 6.02897 9.1838C6.02897 8.99732 5.95489 8.81847 5.82303 8.68661C5.69117 8.55475 5.51232 8.48067 5.32584 8.48067H1.40625V3.02958C1.40625 2.1862 2.0925 1.49995 2.93587 1.49995H45.0641C45.9075 1.49995 46.5938 2.1862 46.5938 3.02958V8.48067H7.95084C7.76436 8.48067 7.58552 8.55475 7.45366 8.68661C7.3218 8.81847 7.24772 8.99732 7.24772 9.1838C7.24772 9.37028 7.3218 9.54912 7.45366 9.68098C7.58552 9.81284 7.76436 9.88692 7.95084 9.88692H46.5938V42.1468C46.5938 42.9902 45.9075 43.6765 45.0641 43.6765Z" fill="#37C5EF"/>
<path id="Vector_3" d="M39.7877 11.64H33.6427C32.4152 11.64 31.4165 12.6387 31.4165 13.8661V14.7168C31.0602 14.8305 30.7363 15.028 30.4719 15.2926C30.2076 15.5572 30.0104 15.8813 29.8971 16.2377L18.9148 16.2792C18.6859 15.5599 18.1164 14.9911 17.3968 14.7627V13.9124C17.3968 12.6848 16.3982 11.6861 15.1706 11.6861H9.02598C7.79851 11.6861 6.79979 12.6848 6.79979 13.9123V20.0569C6.79979 21.2845 7.79851 22.2828 9.02598 22.2828H9.87629C9.98983 22.6389 10.187 22.9627 10.4513 23.2269C10.7156 23.4912 11.0393 23.6883 11.3954 23.8019V26.6747C11.3954 28.1572 12.6013 29.3631 14.0838 29.3631H20.707C20.8206 29.7191 21.0177 30.0427 21.282 30.3069C21.5462 30.5712 21.8698 30.7683 22.2258 30.8819V31.7809C22.2258 32.9817 23.2028 33.9587 24.4036 33.9587H25.3561C25.5582 34.6633 26.0848 35.2317 26.7631 35.492C26.5609 35.8949 26.1442 36.1717 25.6641 36.1717H18.1538C17.9719 35.3612 17.3665 34.7094 16.5835 34.4608V33.6101C16.5835 32.3825 15.5848 31.3839 14.3574 31.3839H8.21233C6.98514 31.3839 5.98642 32.3825 5.98642 33.6101V39.7551C5.98642 40.9826 6.98514 41.9809 8.21233 41.9809H14.3574C15.5848 41.9809 16.5835 40.9826 16.5835 39.7551V38.9043C16.9065 38.8012 17.2032 38.6292 17.4532 38.4002C17.7032 38.1712 17.9005 37.8907 18.0315 37.578H25.6641C26.9048 37.578 27.9481 36.7159 28.2264 35.5594C29.0014 35.3415 29.6139 34.7318 29.8363 33.9587H30.6449C31.846 33.9587 32.8227 32.9817 32.8227 31.7809V29.9311C32.8227 29.5425 32.5082 29.228 32.1196 29.228C31.9331 29.228 31.7543 29.3021 31.6224 29.434C31.4906 29.5658 31.4165 29.7447 31.4165 29.9311V31.7808C31.4165 32.2065 31.0704 32.5524 30.6449 32.5524H29.7979C29.0669 30.4548 26.1159 30.4712 25.3942 32.5524H24.4036C23.978 32.5524 23.632 32.2065 23.632 31.7808V30.8818C23.7814 30.8346 23.9256 30.7722 24.0624 30.6958C24.0722 30.6858 25.2591 30.0864 25.2591 28.66C25.2591 27.6496 24.6042 26.7484 23.632 26.4381V25.5395C23.632 25.1139 23.9781 24.768 24.4035 24.768H30.6449C31.0704 24.768 31.4165 25.1139 31.4165 25.5395V27.3892C31.4165 27.5757 31.4906 27.7545 31.6224 27.8864C31.7543 28.0182 31.9331 28.0923 32.1196 28.0923C32.3061 28.0923 32.4849 28.0182 32.6168 27.8864C32.7486 27.7545 32.8227 27.5757 32.8227 27.3892V25.5395C32.8227 24.3387 31.8457 23.3617 30.6449 23.3617H24.4036C23.2028 23.3617 22.2258 24.3387 22.2258 25.5395V26.4382C21.8698 26.5518 21.5462 26.7489 21.282 27.0131C21.0178 27.2773 20.8206 27.6009 20.707 27.9569H14.0841C13.3769 27.9569 12.8016 27.3815 12.8016 26.6747V23.8019C13.1576 23.6883 13.4813 23.4911 13.7455 23.2268C14.0097 22.9626 14.2068 22.6389 14.3203 22.2828H15.171C16.3982 22.2828 17.3968 21.2845 17.3968 20.0569V19.2062C18.1183 18.9774 18.6885 18.4068 18.9162 17.6854L29.8986 17.644C30.0123 17.9995 30.2095 18.3226 30.4735 18.5864C30.7376 18.8502 31.0609 19.047 31.4165 19.1605V20.0112C31.4165 21.2387 32.4152 22.2374 33.6427 22.2374H39.7877C41.0149 22.2374 42.0136 21.2387 42.0136 20.0112V13.8661C42.0136 12.6386 41.0149 11.64 39.7877 11.64ZM15.8804 37.6065C15.3706 37.6065 14.9564 37.192 14.9564 36.6825C14.9564 36.1731 15.371 35.7586 15.8804 35.7586C16.3899 35.7586 16.8043 36.1732 16.8043 36.6825C16.8043 37.1919 16.3898 37.6065 15.8804 37.6065ZM15.1773 39.7551C15.1773 40.207 14.8096 40.5747 14.3574 40.5747H8.21233C7.76045 40.5747 7.39267 40.207 7.39267 39.7551V33.6101C7.39267 33.1578 7.76036 32.7901 8.21233 32.7901H14.3574C14.8096 32.7901 15.1773 33.1578 15.1773 33.6101V34.4608C12.9969 35.1555 13.0221 38.2173 15.1773 38.9043V39.7551ZM28.5198 33.3201C28.5176 33.8276 28.1041 34.2396 27.5958 34.2396C27.088 34.2396 26.6744 33.8276 26.6723 33.32C26.7879 32.0511 28.4088 32.1045 28.5198 33.32V33.3201ZM23.0692 27.7467C23.5122 27.8147 23.8528 28.1985 23.8528 28.66C23.8528 29.1705 23.4375 29.5839 22.9288 29.5839C22.4191 29.5839 22.0049 29.1694 22.0049 28.66C22.0049 28.0964 22.5084 27.661 23.0692 27.7467ZM16.6937 17.9084C16.1844 17.9084 15.7698 17.4939 15.7698 16.9845C15.7698 16.475 16.1844 16.0605 16.6937 16.0605C17.203 16.0605 17.6177 16.475 17.6177 16.9845C17.6177 17.4939 17.2035 17.9084 16.6937 17.9084ZM12.0985 22.504C11.5382 22.504 11.0988 22.0041 11.1852 21.4394C11.2529 20.9963 11.6367 20.6561 12.0985 20.6561C12.6076 20.6561 13.0225 21.0699 13.0225 21.5797C13.0225 22.0895 12.6079 22.504 12.0985 22.504ZM15.9906 20.0569C15.9906 20.5088 15.623 20.8766 15.1706 20.8766H14.3203C13.9549 19.7351 12.7936 19.0594 11.6312 19.2967C11.6214 19.3019 10.314 19.5095 9.87676 20.8766H9.02598C8.57373 20.8766 8.20604 20.5089 8.20604 20.0569V13.912C8.20604 13.4601 8.57373 13.092 9.02598 13.092H15.171C15.6229 13.092 15.9906 13.46 15.9906 13.912V14.7627C15.0043 15.0768 14.3134 16.0184 14.3665 17.102C14.3705 17.1115 14.3804 18.6929 15.9906 19.2062V20.0569ZM32.1196 16.0147C32.6279 16.0147 33.0436 16.4281 33.0436 16.9387C33.0436 17.4499 32.6272 17.8626 32.1196 17.8626C31.6103 17.8626 31.1957 17.448 31.1957 16.9387C31.1957 16.4293 31.6103 16.0147 32.1196 16.0147ZM40.6074 20.0113C40.6074 20.4631 40.2397 20.8311 39.7877 20.8311H33.6427C33.1904 20.8311 32.8227 20.463 32.8227 20.0112V19.1605C33.8277 18.8404 34.5011 17.8853 34.4469 16.8193V16.8189C34.3982 15.8521 33.7493 15.012 32.8227 14.7168V13.8661C32.8227 13.4143 33.1904 13.0466 33.6427 13.0466H39.7877C40.2396 13.0466 40.6074 13.4143 40.6074 13.8661V20.0113Z" fill="#37C5EF"/>
</g>
</g>
<defs>
<clipPath id="clip0_1_838">
<rect width="48" height="48" fill="white"/>
</clipPath>
</defs>
</svg>
