<svg width="48" height="48" viewBox="0 0 48 48" fill="none" xmlns="http://www.w3.org/2000/svg">
<g id="Frame" clip-path="url(#clip0_1_824)">
<g id="Group">
<path id="Vector" d="M41.9835 29.7906C42.5884 27.9232 42.8957 25.9757 42.8957 23.9912C42.8957 22.014 42.5907 20.0735 41.9894 18.2121C43.3117 17.7155 44.5141 16.9204 45.5123 15.8632C47.2375 14.0369 48.1479 11.6477 48.0762 9.13659C47.9275 3.95222 43.5893 -0.143906 38.4042 0.00403125C35.8926 0.0758437 33.5599 1.12134 31.8347 2.94797C30.9634 3.87047 30.3006 4.9365 29.8667 6.08934C28.0048 5.48841 26.0643 5.18334 24.0864 5.18334C22.1073 5.18334 20.1654 5.48916 18.3025 6.09084C16.9589 2.53528 13.5201 0 9.49984 0C4.31322 0 0.0937195 4.2195 0.0937195 9.40575C0.0937195 13.4257 2.62938 16.864 6.18494 18.2073C5.58288 20.0706 5.27744 22.0126 5.27744 23.9912C5.27744 25.9757 5.58466 27.9232 6.18963 29.7906C2.63153 31.1327 0.0937195 34.5725 0.0937195 38.5942C0.0937195 40.01 0.400563 41.3712 1.00591 42.6398C1.04566 42.7231 1.10145 42.7978 1.17008 42.8596C1.23872 42.9214 1.31885 42.9691 1.40591 42.9999C1.49297 43.0307 1.58524 43.0441 1.67747 43.0392C1.76969 43.0344 1.86006 43.0114 1.94341 42.9716C2.11163 42.8912 2.24107 42.7473 2.30329 42.5715C2.36551 42.3958 2.35544 42.2025 2.27528 42.0341C1.76069 40.956 1.49997 39.7987 1.49997 38.5942C1.49997 34.1836 5.08881 30.5951 9.49984 30.5951C13.9113 30.5951 17.5001 34.1836 17.5001 38.5942C17.5001 43.0052 13.9113 46.5938 9.49984 46.5938C7.48797 46.5938 5.56488 45.8441 4.08541 44.4829C3.79947 44.22 3.35444 44.2387 3.09184 44.5243C3.02931 44.5923 2.98078 44.6719 2.94902 44.7586C2.91726 44.8453 2.90289 44.9374 2.90674 45.0296C2.91059 45.1219 2.93258 45.2125 2.97145 45.2962C3.01032 45.38 3.06531 45.4553 3.13328 45.5178C4.87309 47.1186 7.13416 48 9.49984 48C13.5259 48 16.9691 45.457 18.3083 41.8934C20.1691 42.4941 22.1092 42.799 24.0864 42.799C26.064 42.799 28.0045 42.4941 29.8652 41.8938C31.2046 45.4575 34.6476 48 38.6737 48C43.8603 48 48.0798 43.7805 48.0798 38.5942C48.0798 34.5725 45.542 31.1323 41.9835 29.7906ZM32.8572 3.91331C34.3242 2.35988 36.3087 1.47075 38.4448 1.40953C38.5222 1.40734 38.5996 1.40624 38.677 1.40625C42.9829 1.40625 46.5465 4.84538 46.6702 9.17653C46.7314 11.3123 45.9572 13.344 44.4902 14.8978C43.0232 16.4513 41.0387 17.3405 38.9026 17.4016C38.8252 17.4038 38.7478 17.4049 38.6703 17.4049C34.3644 17.4049 30.8009 13.9658 30.6771 9.63469C30.6155 7.49887 31.3901 5.46684 32.8572 3.91331ZM29.4708 40.5432C27.7383 41.1065 25.9303 41.3928 24.0864 41.3928C22.2433 41.3928 20.4353 41.1065 18.7027 40.5432C18.8382 39.9024 18.9064 39.2492 18.9063 38.5942C18.9063 33.4079 14.6865 29.1889 9.49984 29.1889C8.82784 29.1889 8.17234 29.2602 7.53991 29.3947C6.97188 27.6559 6.68369 25.8413 6.68369 23.9912C6.68369 22.1469 6.97047 20.3382 7.53475 18.6038C8.18067 18.7418 8.83935 18.8113 9.49984 18.8111C11.1112 18.8111 12.7009 18.3966 14.098 17.6125C14.4364 17.4225 14.5568 16.9941 14.3668 16.6553C14.1768 16.3166 13.7482 16.1964 13.4096 16.3865C12.2223 17.0527 10.8702 17.4049 9.49984 17.4049C5.08844 17.4049 1.49997 13.8164 1.49997 9.40537C1.49997 4.99472 5.08881 1.40625 9.49984 1.40625C13.9113 1.40625 17.5001 4.99472 17.5001 9.40575C17.5001 11.2511 16.8567 13.0514 15.6885 14.4756C15.4419 14.7756 15.486 15.2186 15.7863 15.4651C15.9304 15.5833 16.1157 15.6394 16.3012 15.6211C16.4868 15.6027 16.6574 15.5114 16.7757 15.3673C18.1494 13.6927 18.9063 11.5751 18.9063 9.40537C18.9063 8.73197 18.8342 8.07459 18.6991 7.44066C20.4331 6.87628 22.2422 6.58959 24.0864 6.58959C25.9303 6.58959 27.7386 6.876 29.4719 7.43953C29.3169 8.1741 29.2495 8.92447 29.2712 9.67491C29.4173 14.7678 33.6068 18.8115 38.67 18.8111C39.3316 18.8112 39.9914 18.7422 40.6387 18.6053C41.2027 20.339 41.4895 22.1477 41.4895 23.9913C41.4895 25.8413 41.2009 27.656 40.6333 29.3947C39.9891 29.2576 39.3323 29.1886 38.6737 29.1889C33.487 29.1889 29.2676 33.408 29.2676 38.5942C29.2676 39.2626 29.3379 39.9144 29.4708 40.5432ZM38.6737 46.5938C34.2623 46.5938 30.6738 43.0053 30.6738 38.5946C30.6738 34.1836 34.2623 30.5951 38.6737 30.5951C43.085 30.5951 46.6736 34.1836 46.6736 38.5946C46.6736 43.0053 43.085 46.5938 38.6737 46.5938Z" fill="#37C5EF"/>
<path id="Vector_2" d="M14.2881 5.25532C14.1698 5.17479 14.0297 5.1323 13.8865 5.13354C13.7434 5.13478 13.6041 5.17969 13.4872 5.26225C13.2484 5.43058 12.9917 5.57195 12.7218 5.68375C11.7558 4.92785 10.3557 4.93666 9.39667 5.77057C8.90194 6.2001 8.58686 6.80001 8.51402 7.45113C7.99909 7.37451 7.50517 7.19381 7.06237 6.92005C6.61957 6.64628 6.23718 6.28519 5.93852 5.85878C5.86691 5.75711 5.76965 5.67622 5.65664 5.62431C5.54363 5.57241 5.4189 5.55136 5.29511 5.56328C5.17124 5.57528 5.05276 5.61995 4.9518 5.69272C4.85083 5.76549 4.77099 5.86375 4.72042 5.97747C4.70036 6.02285 4.22721 7.10388 4.28758 8.42707C4.3338 9.43957 4.69596 10.7448 6.01689 11.7526C5.53979 11.907 5.0392 11.9762 4.53808 11.9569C4.38012 11.9508 4.22472 11.9981 4.09693 12.0912C3.96913 12.1842 3.87641 12.3176 3.83372 12.4698C3.79103 12.622 3.80086 12.7841 3.86161 12.9301C3.92237 13.076 4.03052 13.1972 4.16861 13.2741C5.27167 13.8869 6.45339 14.1938 7.60802 14.1938C8.71727 14.1938 9.8013 13.9103 10.7659 13.343C11.9755 12.6315 12.8544 11.5421 13.3316 10.2116C13.3466 10.1778 13.359 10.1428 13.369 10.1065C13.6143 9.38397 13.7428 8.59253 13.7428 7.75319C13.7428 7.71663 13.7417 7.6796 13.7403 7.64294C14.1426 7.16871 14.4287 6.60722 14.576 6.00307C14.6097 5.86395 14.6002 5.71785 14.5488 5.58426C14.4974 5.45066 14.4065 5.33592 14.2882 5.25532H14.2881ZM12.3149 7.53382C12.3289 7.60713 12.3362 7.68288 12.3362 7.75544C12.3362 8.4446 12.2336 9.08294 12.0385 9.65969C12.0278 9.68643 12.0189 9.71383 12.0117 9.74172C11.6467 10.7635 10.982 11.5842 10.0529 12.1309C9.20261 12.6316 8.22667 12.8447 7.23199 12.7725C7.45991 12.6597 7.67989 12.5315 7.89039 12.3888C7.99409 12.3183 8.07707 12.2213 8.13077 12.108C8.18446 11.9947 8.20693 11.8691 8.19583 11.7442C8.18469 11.6193 8.14034 11.4996 8.06738 11.3976C7.99442 11.2956 7.89551 11.215 7.78089 11.1641C6.46802 10.5807 5.76602 9.65275 5.69458 8.40653C5.68153 8.16469 5.69013 7.92216 5.72027 7.68185C6.68739 8.48997 7.9263 8.93097 9.21939 8.8976C9.40269 8.89293 9.57691 8.81684 9.70491 8.68557C9.83291 8.55429 9.90457 8.3782 9.90461 8.19485V7.75872C9.90202 7.58332 9.93781 7.40948 10.0095 7.24937C10.0811 7.08925 10.1869 6.94674 10.3195 6.83182C10.822 6.39494 11.5858 6.448 12.0227 6.9505C12.1085 7.04907 12.2201 7.12174 12.345 7.16032C12.3015 7.27984 12.2912 7.40889 12.315 7.53382H12.3149ZM36.3604 9.96035H37.3572V14.1531C37.3572 14.3396 37.4313 14.5185 37.5632 14.6503C37.695 14.7822 37.8739 14.8563 38.0604 14.8563C38.2468 14.8563 38.4257 14.7822 38.5575 14.6503C38.6894 14.5185 38.7635 14.3396 38.7635 14.1531V9.96035H39.8493C40.2374 9.96035 40.5524 9.64535 40.5524 9.25722C40.5524 8.8691 40.2374 8.5541 39.8493 8.5541H38.7635V6.58685C38.7635 5.91157 39.3131 5.36182 39.9888 5.36182H40.8991C41.2874 5.36182 41.6022 5.04691 41.6022 4.65869C41.6022 4.47221 41.5282 4.29337 41.3963 4.16151C41.2644 4.02965 41.0856 3.95557 40.8991 3.95557H39.9888C38.5378 3.95557 37.3572 5.13588 37.3572 6.58685V8.5541H36.3604C35.9723 8.5541 35.6573 8.8691 35.6573 9.25722C35.6573 9.64535 35.9723 9.96035 36.3604 9.96035ZM7.90502 42.2308C8.07246 42.2308 8.23971 42.1877 8.38877 42.1016L13.1748 39.3371C13.3217 39.252 13.4437 39.1298 13.5286 38.9828C13.6135 38.8357 13.6583 38.669 13.6585 38.4992C13.6585 38.1549 13.4733 37.8338 13.1748 37.6617L8.38886 34.8971C8.24178 34.8123 8.07501 34.7677 7.90525 34.7677C7.7355 34.7677 7.56872 34.8123 7.42164 34.8971C7.27467 34.9822 7.15259 35.1043 7.06764 35.2514C6.98268 35.3984 6.93781 35.5652 6.93752 35.735V41.2637C6.93752 41.6083 7.12314 41.9295 7.42164 42.1016C7.56855 42.1865 7.73531 42.2311 7.90502 42.2309V42.2308ZM8.34377 36.4953L11.814 38.4996L8.34377 40.5038V36.4953ZM41.7295 33.6147H35.6188C34.5576 33.6147 33.694 34.4781 33.694 35.5398V41.6493C33.694 42.711 34.5575 43.5745 35.6188 43.5745H41.7295C42.7907 43.5745 43.6541 42.711 43.6541 41.6493V35.5398C43.6541 34.4782 42.7907 33.6147 41.7295 33.6147ZM42.2479 41.6493C42.2478 41.7869 42.1932 41.9188 42.096 42.016C41.9988 42.1133 41.867 42.1681 41.7295 42.1682H35.6188C35.4813 42.1681 35.3494 42.1134 35.2521 42.0161C35.1549 41.9188 35.1003 41.7869 35.1002 41.6493V35.5398C35.1003 35.4023 35.155 35.2704 35.2522 35.1732C35.3495 35.0759 35.4813 35.0211 35.6188 35.0209H41.7295C41.867 35.0212 41.9988 35.076 42.0959 35.1732C42.1931 35.2705 42.2478 35.4023 42.2479 35.5398V41.6493Z" fill="#37C5EF"/>
<path id="Vector_3" d="M38.6742 36.4692C37.5023 36.4692 36.5487 37.4228 36.5487 38.5947C36.5487 39.7666 37.5023 40.7198 38.6742 40.7198C39.846 40.7198 40.7996 39.7666 40.7996 38.5947C40.7996 37.4228 39.846 36.4692 38.6742 36.4692ZM38.6742 39.3136C38.2776 39.3136 37.9549 38.9909 37.9549 38.5947C37.9549 38.1981 38.2775 37.8754 38.6742 37.8754C39.0708 37.8754 39.3933 38.198 39.3933 38.5947C39.3933 38.9909 39.0707 39.3136 38.6742 39.3136ZM29.1757 16.6964C28.9892 16.6964 28.8104 16.7705 28.6785 16.9023C28.5467 17.0342 28.4726 17.213 28.4726 17.3995V17.7148C27.4808 18.2995 26.4426 18.8016 25.3685 19.2159C24.5076 19.547 23.6258 19.8209 22.7289 20.0359C22.587 19.9259 22.4126 19.8661 22.233 19.8659H19.0137C18.2359 19.8659 17.6035 20.4987 17.6035 21.2762V24.9687C17.6035 25.7465 18.2359 26.379 19.0138 26.379H19.6572L19.901 31.0672C19.9058 31.1594 19.9288 31.2498 19.9685 31.3331C20.0082 31.4164 20.064 31.4911 20.1326 31.5529C20.2012 31.6147 20.2813 31.6624 20.3683 31.6932C20.4553 31.724 20.5476 31.7374 20.6398 31.7326C20.826 31.7229 21.0007 31.6396 21.1255 31.5011C21.2503 31.3626 21.315 31.1802 21.3054 30.994L21.0652 26.379H22.233C22.4195 26.379 22.5912 26.3152 22.7286 26.2094C23.2994 26.347 23.8642 26.5084 24.4215 26.6931C24.5092 26.7222 24.6017 26.7337 24.6938 26.7271C24.7859 26.7204 24.8758 26.6956 24.9583 26.6542C25.0409 26.6128 25.1144 26.5555 25.1748 26.4857C25.2352 26.4158 25.2813 26.3348 25.3103 26.2471C25.3394 26.1595 25.3509 26.067 25.3443 25.9749C25.3376 25.8828 25.3128 25.7929 25.2714 25.7103C25.23 25.6278 25.1727 25.5542 25.1029 25.4938C25.033 25.4334 24.952 25.3874 24.8643 25.3583C24.2658 25.1598 23.6591 24.9866 23.046 24.839V21.4066C24.007 21.1764 24.9517 20.8829 25.8739 20.528C26.7647 20.1846 27.6326 19.7845 28.4723 19.3304V26.9161C28.1641 26.7496 27.852 26.5904 27.5363 26.4386C27.4531 26.3985 27.3628 26.3752 27.2706 26.3701C27.1784 26.3649 27.0861 26.378 26.999 26.4085C26.9119 26.4391 26.8316 26.4865 26.7628 26.5481C26.694 26.6097 26.638 26.6842 26.598 26.7675C26.558 26.8507 26.5347 26.941 26.5296 27.0332C26.5245 27.1254 26.5375 27.2177 26.5681 27.3049C26.5986 27.392 26.646 27.4723 26.7076 27.5411C26.7692 27.61 26.8437 27.666 26.9269 27.706C27.4532 27.9598 27.9687 28.2352 28.4723 28.5315V28.8454C28.4723 29.0318 28.5464 29.2107 28.6782 29.3425C28.8101 29.4744 28.9889 29.5485 29.1754 29.5485C29.3619 29.5485 29.5407 29.4744 29.6726 29.3425C29.8045 29.2107 29.8785 29.0318 29.8785 28.8454V17.3994C29.8786 17.3071 29.8605 17.2157 29.8252 17.1304C29.7899 17.0451 29.7381 16.9675 29.6728 16.9023C29.6076 16.837 29.5301 16.7852 29.4448 16.7498C29.3595 16.7145 29.2681 16.6963 29.1758 16.6963L29.1757 16.6964ZM21.6402 24.9724L19.0097 24.9687L19.0138 21.2721H21.6402V24.9724Z" fill="#37C5EF"/>
</g>
</g>
<defs>
<clipPath id="clip0_1_824">
<rect width="48" height="48" fill="white"/>
</clipPath>
</defs>
</svg>
