<svg width="48" height="48" viewBox="0 0 48 48" fill="none" xmlns="http://www.w3.org/2000/svg">
<g id="Frame" clip-path="url(#clip0_1_807)">
<g id="Group">
<path id="Vector" d="M36.8996 36.8H35.2996V40H20.8996V41.6H35.2996V44C35.2996 45.3254 34.225 46.4 32.8996 46.4H15.2996C14.8782 46.3994 14.4644 46.2882 14.0994 46.0777C13.7344 45.8671 13.4311 45.5645 13.2196 45.2L11.834 46C12.1865 46.6072 12.692 47.1113 13.3 47.4623C13.9081 47.8132 14.5975 47.9986 15.2996 48H32.8996C35.1078 47.9973 36.8969 46.2082 36.8996 44V36.8Z" fill="#37C5EF"/>
<path id="Vector_2" d="M23.3 43.2H24.9V44.8H23.3V43.2ZM28.1 21.6V20H25.6594C25.2605 14.895 21.2051 10.8395 16.1 10.4406V8H14.5V10.4406C13.961 10.482 13.4262 10.5656 12.9 10.6902V6.4H25.7V4.8H12.9V4C12.9 2.6746 13.9746 1.6 15.3 1.6H32.9C33.4845 1.59998 34.0488 1.81334 34.4871 2.2L35.5457 1C34.8153 0.355191 33.8743 -0.000448017 32.9 4.23577e-07H15.3C13.0918 0.00270042 11.3027 1.7918 11.3 4V11.2C7.6977 12.709 5.2426 16.1063 4.9406 20H2.5V21.6H4.9426C5.3199 26.7148 9.3852 30.7828 14.5 31.1633V33.6H16.1V31.1633C21.2148 30.7828 25.28 26.7148 25.6574 21.6H28.1ZM14.5 28V29.5633C13.3841 29.4628 12.2979 29.1493 11.3 28.6398V27.2C11.3 24.991 13.091 23.2 15.3 23.2C17.509 23.2 19.3 24.991 19.3 27.2V28.6398C18.3022 29.1499 17.216 29.4642 16.1 29.5656V28H14.5ZM12.9 19.2C12.9 17.8746 13.9746 16.8 15.3 16.8C16.6254 16.8 17.7 17.8746 17.7 19.2C17.7 20.5254 16.6254 21.6 15.3 21.6C13.9746 21.6 12.9 20.5254 12.9 19.2ZM21.1664 27.3602C21.0801 27.4398 20.9879 27.5039 20.9 27.5777V27.2C20.899 26.1748 20.6166 25.1695 20.0835 24.2937C19.5505 23.418 18.7872 22.7054 17.877 22.2336C18.5043 21.7052 18.954 20.9967 19.1652 20.2041C19.3763 19.4115 19.3387 18.5732 19.0574 17.8027C18.7761 17.0322 18.2648 16.3669 17.5927 15.8968C16.9206 15.4267 16.1202 15.1745 15.3 15.1745C14.4798 15.1745 13.6794 15.4267 13.0073 15.8968C12.3352 16.3669 11.8239 17.0322 11.5426 17.8027C11.2613 18.5732 11.2237 19.4115 11.4348 20.2041C11.646 20.9967 12.0957 21.7052 12.723 22.2336C11.8128 22.7054 11.0495 23.418 10.5165 24.2937C9.9834 25.1695 9.70098 26.1748 9.7 27.2V27.5816C9.6113 27.509 9.5191 27.4406 9.4336 27.3641C7.77568 25.8775 6.74266 23.8178 6.5426 21.6H8.1V20H6.5406C6.9316 15.7766 10.2766 12.4316 14.5 12.0406V13.6H16.1V12.0406C20.3234 12.4316 23.6684 15.7766 24.0594 20H22.5V21.6H24.0574C23.8573 23.8178 22.8243 25.8774 21.1664 27.364V27.3602Z" fill="#37C5EF"/>
<path id="Vector_3" d="M45.6996 14.4C45.9118 14.4 46.1153 14.3157 46.2653 14.1657C46.4153 14.0157 46.4996 13.8122 46.4996 13.6V4.00001C46.4996 3.78784 46.4153 3.58436 46.2653 3.43433C46.1153 3.2843 45.9118 3.20001 45.6996 3.20001H28.0996C27.8874 3.20001 27.6839 3.2843 27.5339 3.43433C27.3839 3.58436 27.2996 3.78784 27.2996 4.00001V13.6C27.2996 13.8122 27.3839 14.0157 27.5339 14.1657C27.6839 14.3157 27.8874 14.4 28.0996 14.4H45.6996ZM28.8996 4.80001H44.8996V12.8H28.8996V4.80001Z" fill="#37C5EF"/>
<path id="Vector_4" d="M30.4996 6.40002H33.6996V8.00002H30.4996V6.40002ZM35.2996 6.40002H43.2996V8.00002H35.2996V6.40002ZM30.4996 9.60002H43.2996V11.2H30.4996V9.60002ZM45.5582 16C44.9389 16.001 44.3413 16.2286 43.8782 16.6398L36.8996 22.7922V16H35.2996V24H35.5309L30.9796 28.016C28.0186 28.1855 25.703 30.634 25.6995 33.6V35.0113C25.7011 35.4005 25.5935 35.7823 25.3889 36.1134C25.1843 36.4444 24.8909 36.7114 24.5421 36.884C24.3807 36.9645 24.2512 37.0971 24.1746 37.2604C24.0981 37.4237 24.0789 37.6081 24.1203 37.7836C24.1617 37.9592 24.2612 38.1156 24.4027 38.2275C24.5441 38.3394 24.7193 38.4002 24.8996 38.4H30.4996C33.4656 38.3965 35.9141 36.0809 36.0836 33.12L47.4644 20.2223C47.7879 19.8555 47.9986 19.4031 48.0713 18.9194C48.144 18.4358 48.0756 17.9414 47.8742 17.4957C47.673 17.05 47.3475 16.6718 46.9367 16.4065C46.5259 16.1412 46.0472 16 45.5582 16ZM30.4996 36.8H26.841C27.143 36.2523 27.3008 35.6368 27.2996 35.0113V33.6C27.3023 31.516 28.9023 29.782 30.9796 29.6129L34.4867 33.1199C34.318 35.1973 32.5836 36.7977 30.4996 36.8ZM46.2644 19.164L35.2637 31.632L32.4676 28.8367L44.9356 17.8352C45.1154 17.6775 45.3484 17.5941 45.5874 17.6019C45.8264 17.6097 46.0535 17.708 46.2226 17.877C46.3916 18.0462 46.49 18.2733 46.4977 18.5123C46.5055 18.7513 46.4221 18.9843 46.2644 19.164ZM0.899609 44H18.4996C18.7118 44 18.9153 43.9157 19.0653 43.7657C19.2153 43.6157 19.2996 43.4122 19.2996 43.2V36.8C19.2996 36.5879 19.2153 36.3844 19.0653 36.2343C18.9153 36.0843 18.7118 36 18.4996 36H12.8996V32H11.2996V36H0.899609C0.687436 36 0.483953 36.0843 0.333924 36.2343C0.183895 36.3844 0.0996094 36.5879 0.0996094 36.8V43.2C0.0996094 43.4122 0.183895 43.6157 0.333924 43.7657C0.483953 43.9157 0.687436 44 0.899609 44ZM1.69961 37.6H17.6996V42.4H1.69961V37.6Z" fill="#37C5EF"/>
<path id="Vector_5" d="M3.29961 39.2H7.29961V40.8H3.29961V39.2ZM8.89961 39.2H16.0996V40.8H8.89961V39.2ZM0.899609 11.2H8.89961C9.11178 11.2 9.31527 11.1157 9.46529 10.9657C9.61532 10.8157 9.69961 10.6122 9.69961 10.4V4.00001C9.69961 3.78784 9.61532 3.58436 9.46529 3.43433C9.31527 3.2843 9.11178 3.20001 8.89961 3.20001H0.899609C0.687436 3.20001 0.483953 3.2843 0.333924 3.43433C0.183895 3.58436 0.0996094 3.78784 0.0996094 4.00001V10.4C0.0996094 10.6122 0.183895 10.8157 0.333924 10.9657C0.483953 11.1157 0.687436 11.2 0.899609 11.2ZM1.69961 4.80001H8.09961V9.60001H1.69961V4.80001Z" fill="#37C5EF"/>
<path id="Vector_6" d="M3.29961 6.40002H6.49961V8.00002H3.29961V6.40002Z" fill="#37C5EF"/>
</g>
</g>
<defs>
<clipPath id="clip0_1_807">
<rect width="48" height="48" fill="white"/>
</clipPath>
</defs>
</svg>
