<svg width="48" height="48" viewBox="0 0 48 48" fill="none" xmlns="http://www.w3.org/2000/svg">
<g id="Frame">
<g id="Group">
<path id="Vector" d="M18.9385 30.8075C18.7504 30.8076 18.5684 30.7404 18.4254 30.6182L13.2975 26.2518C13.2101 26.1774 13.1399 26.0849 13.0918 25.9808C13.0437 25.8766 13.0187 25.7632 13.0187 25.6484C13.0187 25.5337 13.0437 25.4203 13.0918 25.3161C13.1399 25.2119 13.2101 25.1194 13.2975 25.045L18.4254 20.6786C18.5854 20.5423 18.793 20.4752 19.0024 20.4919C19.2119 20.5086 19.4062 20.6079 19.5425 20.7678C19.8259 21.1013 19.7861 21.6014 19.4527 21.8848L15.0336 25.6482L19.4527 29.4114C19.5763 29.5166 19.6646 29.6571 19.7058 29.814C19.7469 29.971 19.7389 30.1368 19.6829 30.289C19.6268 30.4412 19.5253 30.5726 19.3922 30.6653C19.259 30.7581 19.1007 30.8077 18.9385 30.8075ZM29.0615 30.8075C28.8374 30.8075 28.6146 30.7129 28.458 30.5285C28.3218 30.3685 28.2546 30.1609 28.2714 29.9514C28.2881 29.742 28.3874 29.5477 28.5473 29.4114L32.9664 25.6482L28.5473 21.8848C28.3931 21.747 28.2988 21.5542 28.2848 21.3478C28.2707 21.1414 28.3379 20.9377 28.472 20.7802C28.6062 20.6227 28.7966 20.5239 29.0026 20.5049C29.2086 20.4859 29.4139 20.5482 29.5746 20.6785L34.7025 25.0449C34.7899 25.1193 34.8601 25.2118 34.9082 25.316C34.9564 25.4202 34.9813 25.5335 34.9813 25.6483C34.9813 25.7631 34.9564 25.8765 34.9082 25.9806C34.8601 26.0848 34.7899 26.1773 34.7025 26.2517L29.5746 30.6181C29.4316 30.7403 29.2497 30.8075 29.0616 30.8075H29.0615ZM22.1847 34.0826C22.0667 34.0827 21.9501 34.0565 21.8435 34.0058C21.7369 33.9552 21.6429 33.8813 21.5685 33.7897C21.4941 33.6981 21.4411 33.591 21.4133 33.4763C21.3856 33.3616 21.3838 33.2421 21.4081 33.1266L24.604 17.9527C24.6473 17.747 24.7706 17.567 24.9467 17.4522C25.1227 17.3374 25.3372 17.2973 25.5429 17.3406C25.7485 17.384 25.9286 17.5072 26.0433 17.6833C26.1581 17.8594 26.1983 18.0738 26.1549 18.2795L22.9591 33.4533C22.9217 33.631 22.8243 33.7905 22.6834 33.9051C22.5424 34.0197 22.3664 34.0823 22.1847 34.0826Z" fill="#37C5EF"/>
<path id="Vector_2" d="M42.6792 42.3494H5.32075C2.38709 42.3494 0 39.9627 0 37.0286V5.32075C0 2.38709 2.38709 0 5.32075 0H42.6792C45.6129 0 48 2.38709 48 5.32075V37.0286C48 39.9627 45.6129 42.3494 42.6792 42.3494ZM5.32075 1.58491C3.26094 1.58491 1.58491 3.26094 1.58491 5.32075V37.0286C1.58491 39.0884 3.26094 40.7645 5.32075 40.7645H42.6792C44.7391 40.7645 46.4151 39.0884 46.4151 37.0286V5.32075C46.4151 3.26094 44.7391 1.58491 42.6792 1.58491H5.32075Z" fill="#37C5EF"/>
<path id="Vector_3" d="M47.2079 12.6894H0.792843C0.584991 12.6859 0.38684 12.6009 0.241093 12.4526C0.095346 12.3044 0.0136719 12.1048 0.0136719 11.897C0.0136719 11.6891 0.095346 11.4895 0.241093 11.3413C0.38684 11.1931 0.584991 11.108 0.792843 11.1045H47.2079C47.4158 11.108 47.6139 11.1931 47.7597 11.3413C47.9054 11.4895 47.9871 11.6891 47.9871 11.897C47.9871 12.1048 47.9054 12.3044 47.7597 12.4526C47.6139 12.6009 47.4158 12.6859 47.2079 12.6894ZM13.5402 8.89742C12.1579 8.89742 11.0324 7.77191 11.0324 6.38954C11.0324 5.00682 12.1579 3.88176 13.5402 3.88176C14.923 3.88176 16.048 5.00682 16.048 6.38954C16.048 7.77191 14.923 8.89742 13.5402 8.89742ZM13.5402 5.46667C13.0316 5.46667 12.6173 5.88055 12.6173 6.38954C12.6173 6.89852 13.0316 7.31252 13.5402 7.31252C14.0492 7.31252 14.4631 6.89863 14.4631 6.38954C14.4631 5.88044 14.0492 5.46667 13.5402 5.46667ZM5.83511 8.87308C4.45216 8.87308 3.32722 7.74803 3.32722 6.36531C3.32722 4.98248 4.45216 3.85742 5.83499 3.85742C7.21782 3.85742 8.34277 4.98248 8.34277 6.36531C8.34277 7.74803 7.21794 8.87308 5.83511 8.87308ZM5.83511 5.44233C5.32647 5.44233 4.91213 5.85667 4.91213 6.36531C4.91213 6.87429 5.32647 7.28818 5.83499 7.28818C6.34397 7.28818 6.75786 6.87429 6.75786 6.36531C6.75786 5.85667 6.34409 5.44233 5.83511 5.44233ZM21.2454 8.92131C19.8631 8.92131 18.738 7.79625 18.738 6.41342C18.738 5.03116 19.863 3.9061 21.2454 3.9061C22.6282 3.9061 23.7531 5.03104 23.7531 6.41342C23.7531 7.79625 22.6282 8.92131 21.2454 8.92131ZM21.2454 5.49055C20.7368 5.49055 20.323 5.90444 20.323 6.41342C20.323 6.9224 20.7368 7.3364 21.2454 7.3364C21.7544 7.3364 22.1682 6.9224 22.1682 6.41342C22.1682 5.90444 21.7544 5.49055 21.2454 5.49055Z" fill="#37C5EF"/>
</g>
</g>
</svg>
