<svg width="32" height="32" viewBox="0 0 32 32" fill="none" xmlns="http://www.w3.org/2000/svg">
<circle cx="16" cy="16" r="16" fill="url(#paint0_linear_287_676)" fill-opacity="0.7"/>
<circle cx="16" cy="16" r="15.75" stroke="url(#paint1_linear_287_676)" stroke-opacity="0.8" stroke-width="0.5"/>
<g clip-path="url(#clip0_287_676)">
<path d="M17.4893 14.7749L23.3176 8H21.9365L16.8758 13.8826L12.8338 8H8.17188L14.2841 16.8955L8.17188 24H9.55307L14.8973 17.7878L19.1659 24H23.8278L17.489 14.7749H17.4893ZM15.5976 16.9738L14.9783 16.0881L10.0507 9.03974H12.1722L16.1487 14.728L16.768 15.6137L21.9371 23.0075H19.8157L15.5976 16.9742V16.9738Z" fill="white"/>
</g>
<defs>
<linearGradient id="paint0_linear_287_676" x1="0" y1="0" x2="32" y2="32" gradientUnits="userSpaceOnUse">
<stop stop-color="white" stop-opacity="0.7"/>
<stop offset="1" stop-color="white" stop-opacity="0.3"/>
</linearGradient>
<linearGradient id="paint1_linear_287_676" x1="0" y1="0" x2="32" y2="32" gradientUnits="userSpaceOnUse">
<stop stop-color="white" stop-opacity="0.7"/>
<stop offset="1" stop-color="white" stop-opacity="0.3"/>
</linearGradient>
<clipPath id="clip0_287_676">
<rect width="16" height="16" fill="white" transform="translate(8 8)"/>
</clipPath>
</defs>
</svg>
