<svg width="113" height="81" viewBox="0 0 113 81" fill="none" xmlns="http://www.w3.org/2000/svg">
<g clip-path="url(#clip0_1_295)">
<path d="M6.10353 13.3043C11.0352 10.9047 21.9443 8.8955 26.1242 20.0812C26.8023 21.9451 27.8911 26.7997 24.5216 26.8408C22.2756 26.8682 20.3397 24.7576 27.2408 19.5033C34.3755 13.7999 52.9342 7.863 61.0675 30.0421C62.2299 33.2108 64.2678 43.7633 63.1257 60.6263C66.3594 49.4502 76.2207 24.468 89.7958 13.9712M68.8846 26.2986C69.4253 24.6069 70.1653 16.454 77.9966 13.5508M77.0824 53.4389C79.9946 50.1008 83.9037 47.7885 88.2317 46.844M78.0794 66.3454C84.9964 65.5126 100.416 65.0063 106.764 69.6456" stroke="black" stroke-width="2.00105"/>
</g>
<defs>
<clipPath id="clip0_1_295">
<rect width="106.776" height="71.352" fill="white" transform="translate(6.62109) rotate(5.32497)"/>
</clipPath>
</defs>
</svg>
