<svg width="1207" height="950" viewBox="0 0 1207 950" fill="none" xmlns="http://www.w3.org/2000/svg">
<path d="M1110.89 646.075C1220.15 404.331 1163.92 101.937 1117.77 0H-4V950H861.253C980.444 862.032 1085.98 701.209 1110.89 646.075Z" fill="white"/>
<path opacity="0.6" d="M1187.19 442.406C1216.47 204.256 1155.61 39.7928 1132.65 0H1125.12C1188.21 125.215 1192.1 335.912 1178.81 442.406C1148.19 687.884 1017.89 821.206 953 875C1130.65 758.601 1176.71 527.698 1187.19 442.406Z" fill="url(#paint0_linear_1_268)"/>
<path opacity="0.6" d="M1204.5 359.375C1216.1 166.875 1165.17 39.5833 1139 0H1135.5C1201.5 125.714 1202.5 290.625 1198.5 359.375C1198.5 693.304 987.667 891.22 878.5 950H882C1164 781.25 1204.5 496.875 1204.5 359.375Z" fill="white"/>
<defs>
<linearGradient id="paint0_linear_1_268" x1="1144" y1="-8.21812e-07" x2="1018.45" y2="1133.84" gradientUnits="userSpaceOnUse">
<stop stop-color="white"/>
<stop offset="1" stop-color="white" stop-opacity="0"/>
</linearGradient>
</defs>
</svg>
