<svg width="40" height="40" viewBox="0 0 40 40" fill="none" xmlns="http://www.w3.org/2000/svg">
<path d="M21.875 5H18.125C17.78 5 17.5 4.72 17.5 4.375C17.5 4.03 17.78 3.75 18.125 3.75H21.875C22.22 3.75 22.5 4.03 22.5 4.375C22.5 4.72 22.22 5 21.875 5Z" fill="white"/>
<path d="M26.875 38.75H13.125C11.4013 38.75 10 37.3475 10 35.625V14.375C10 14.03 10.28 13.75 10.625 13.75C10.97 13.75 11.25 14.03 11.25 14.375V35.625C11.25 36.6588 12.0912 37.5 13.125 37.5H26.875C27.9088 37.5 28.75 36.6588 28.75 35.625V14.375C28.75 14.03 29.03 13.75 29.375 13.75C29.72 13.75 30 14.03 30 14.375V35.625C30 37.3475 28.5987 38.75 26.875 38.75Z" fill="white"/>
<path d="M29.375 18.75C29.03 18.75 28.75 18.47 28.75 18.125V4.375C28.75 3.34125 27.9088 2.5 26.875 2.5H13.125C12.0912 2.5 11.25 3.34125 11.25 4.375V18.125C11.25 18.47 10.97 18.75 10.625 18.75C10.28 18.75 10 18.47 10 18.125V4.375C10 2.6525 11.4013 1.25 13.125 1.25H26.875C28.5987 1.25 30 2.6525 30 4.375V18.125C30 18.47 29.72 18.75 29.375 18.75Z" fill="white"/>
<path d="M33.125 7.5625C32.78 7.5625 32.5 7.345 32.5 7V6.875C32.5 6.53 32.78 6.25 33.125 6.25C33.47 6.25 33.75 6.53 33.75 6.875C33.75 7.22 33.47 7.5625 33.125 7.5625Z" fill="white"/>
<path d="M33.125 10.0625C32.78 10.0625 32.5 9.845 32.5 9.5V9.375C32.5 9.03 32.78 8.75 33.125 8.75C33.47 8.75 33.75 9.03 33.75 9.375C33.75 9.72 33.47 10.0625 33.125 10.0625Z" fill="white"/>
<path d="M33.125 12.5625C32.78 12.5625 32.5 12.345 32.5 12V11.875C32.5 11.53 32.78 11.25 33.125 11.25C33.47 11.25 33.75 11.53 33.75 11.875C33.75 12.22 33.47 12.5625 33.125 12.5625Z" fill="white"/>
<path d="M6.875 28.6875C6.53 28.6875 6.25 28.47 6.25 28.125V28C6.25 27.655 6.53 27.375 6.875 27.375C7.22 27.375 7.5 27.655 7.5 28C7.5 28.345 7.22 28.6875 6.875 28.6875Z" fill="white"/>
<path d="M6.875 31.1875C6.53 31.1875 6.25 30.97 6.25 30.625V30.5C6.25 30.155 6.53 29.875 6.875 29.875C7.22 29.875 7.5 30.155 7.5 30.5C7.5 30.845 7.22 31.1875 6.875 31.1875Z" fill="white"/>
<path d="M6.875 33.6875C6.53 33.6875 6.25 33.47 6.25 33.125V33C6.25 32.655 6.53 32.375 6.875 32.375C7.22 32.375 7.5 32.655 7.5 33C7.5 33.345 7.22 33.6875 6.875 33.6875Z" fill="white"/>
<path d="M31.0512 33.75C31.0075 33.75 30.9625 33.7463 30.9188 33.7362C30.5813 33.6637 30.3675 33.3313 30.44 32.9938L30.8525 31.0812C30.9025 30.8462 31.0837 30.6625 31.3162 30.6063C31.9062 30.4638 32.4813 30.2237 33.025 29.8925C33.2263 29.7675 33.485 29.7713 33.6862 29.8988L34.9237 30.69L35.69 29.9175L34.8988 28.69C34.7688 28.4887 34.7663 28.23 34.89 28.0262C35.2213 27.4825 35.4613 26.9075 35.6025 26.3175C35.6588 26.085 35.8413 25.905 36.075 25.8525L37.5 25.5363V24.465L36.0763 24.1488C35.8425 24.0963 35.66 23.9163 35.6037 23.6838C35.4625 23.0938 35.2213 22.5187 34.8913 21.975C34.7663 21.7712 34.7688 21.5137 34.8988 21.3125L35.6912 20.0738L34.9262 19.3087L33.6875 20.1012C33.4863 20.23 33.2287 20.2325 33.0262 20.1075C32.4812 19.7763 31.9063 19.5363 31.3175 19.3938C31.0838 19.3375 30.9038 19.1525 30.8538 18.9188L30.5463 17.5H30C29.655 17.5 29.375 17.22 29.375 16.875C29.375 16.53 29.655 16.25 30 16.25H31.05C31.3438 16.25 31.5987 16.4563 31.66 16.7438L31.9937 18.285C32.4512 18.4238 32.9 18.6113 33.3325 18.845L34.675 17.9862C34.9225 17.8287 35.245 17.8637 35.4538 18.0712L36.93 19.5463C37.1375 19.7538 37.1725 20.0775 37.0138 20.325L36.155 21.6675C36.3887 22.1012 36.5762 22.55 36.715 23.0087L38.2588 23.3512C38.5463 23.415 38.75 23.67 38.75 23.9625V26.0375C38.75 26.33 38.5462 26.585 38.26 26.6475L36.7162 26.99C36.5775 27.4487 36.39 27.8975 36.1562 28.33L37.0138 29.66C37.1737 29.9063 37.14 30.2312 36.9325 30.4387L35.4562 31.9263C35.2475 32.135 34.9237 32.17 34.6762 32.0125L33.3337 31.1538C32.9 31.3875 32.4525 31.575 31.995 31.7138L31.6613 33.255C31.5975 33.55 31.3375 33.75 31.0512 33.75Z" fill="white"/>
<path d="M31.7392 28.2225C31.5392 28.2225 31.3417 28.125 31.2205 27.9463C31.028 27.66 31.1042 27.2713 31.3917 27.0788C32.0855 26.6113 32.5005 25.8338 32.5005 25C32.5005 23.6213 31.3792 22.5 30.0005 22.5C29.8305 22.5 29.6617 22.5175 29.5005 22.55C29.1655 22.6175 28.8317 22.4025 28.7617 22.0625C28.693 21.7237 28.9105 21.3937 29.2492 21.325C29.4942 21.2762 29.7467 21.25 30.0005 21.25C32.068 21.25 33.7505 22.9325 33.7505 25C33.7505 26.2513 33.1292 27.4163 32.0867 28.1163C31.9805 28.1875 31.8592 28.2225 31.7392 28.2225Z" fill="white"/>
<path d="M10 18.7501C7.9325 18.7501 6.25 17.0676 6.25 15.0001C6.25 13.7439 6.875 12.5776 7.9225 11.8776C8.20625 11.6876 8.59625 11.7626 8.78875 12.0514C8.98 12.3376 8.9025 12.7264 8.615 12.9176C7.9175 13.3851 7.5 14.1626 7.5 15.0001C7.5 16.3789 8.62125 17.5001 10 17.5001C10.1675 17.5001 10.3325 17.4839 10.49 17.4514C10.8212 17.3826 11.1575 17.6014 11.2262 17.9414C11.295 18.2801 11.075 18.6089 10.7362 18.6764C10.4975 18.7251 10.2525 18.7501 10 18.7501Z" fill="white"/>
<path d="M10 23.7499H8.95C8.65625 23.7499 8.40125 23.5437 8.34 23.2562L8.00625 21.7149C7.54875 21.5762 7.1 21.3887 6.6675 21.1549L5.325 22.0137C5.07625 22.1712 4.755 22.1374 4.54625 21.9287L3.07 20.4537C2.8625 20.2462 2.8275 19.9224 2.98625 19.6749L3.845 18.3324C3.61125 17.8987 3.42375 17.4499 3.285 16.9912L1.74125 16.6487C1.45375 16.5849 1.25 16.3299 1.25 16.0374V13.9624C1.25 13.6699 1.45375 13.4149 1.74 13.3524L3.28375 13.0099C3.4225 12.5512 3.61 12.1024 3.84375 11.6699L2.9875 10.3387C2.8275 10.0924 2.86125 9.76743 3.06875 9.55993L4.545 8.07243C4.75125 7.86243 5.07625 7.82743 5.325 7.98618L6.6675 8.84493C7.10125 8.61118 7.54875 8.42368 8.00625 8.28493L8.34 6.74368C8.4125 6.40493 8.75125 6.18993 9.0825 6.26493C9.42 6.33743 9.63375 6.66993 9.56125 7.00743L9.14875 8.91993C9.09875 9.15493 8.9175 9.33868 8.685 9.39493C8.095 9.53743 7.52 9.77743 6.975 10.1087C6.7725 10.2337 6.515 10.2299 6.31375 10.1024L5.07625 9.31118L4.30875 10.0837L5.1 11.3112C5.23125 11.5124 5.23375 11.7712 5.10875 11.9749C4.7775 12.5187 4.5375 13.0937 4.39625 13.6837C4.34 13.9162 4.1575 14.0962 3.92375 14.1487L2.5 14.4637V15.5349L3.92375 15.8512C4.1575 15.9037 4.34 16.0837 4.39625 16.3162C4.5375 16.9062 4.77875 17.4812 5.10875 18.0249C5.23375 18.2287 5.23125 18.4862 5.10125 18.6874L4.30875 19.9249L5.07375 20.6899L6.3125 19.8974C6.51375 19.7699 6.7725 19.7674 6.97375 19.8912C7.51875 20.2224 8.09375 20.4624 8.6825 20.6049C8.91625 20.6612 9.09625 20.8462 9.14625 21.0799L9.45375 22.4999H10C10.345 22.4999 10.625 22.7799 10.625 23.1249C10.625 23.4699 10.345 23.7499 10 23.7499Z" fill="white"/>
<path d="M19.3751 23.1249C19.3251 23.1249 19.2751 23.1186 19.2239 23.1061C18.8876 23.0224 18.6851 22.6836 18.7689 22.3486L20.0189 17.3486C20.1014 17.0124 20.4351 16.8099 20.7764 16.8936C21.1126 16.9774 21.3151 17.3161 21.2314 17.6511L19.9814 22.6511C19.9114 22.9361 19.6564 23.1249 19.3751 23.1249Z" fill="white"/>
<path d="M23.1253 23.1248C22.9653 23.1248 22.8053 23.0635 22.6828 22.9423C22.4391 22.6985 22.4391 22.3023 22.6828 22.0585L24.7416 19.9998L22.6841 17.9423C22.4403 17.6985 22.4403 17.3023 22.6841 17.0585C22.9278 16.8148 23.3241 16.8148 23.5678 17.0585L26.0678 19.5585C26.3116 19.8023 26.3116 20.1985 26.0678 20.4423L23.5678 22.9423C23.4453 23.0635 23.2853 23.1248 23.1253 23.1248Z" fill="white"/>
<path d="M16.8753 23.1248C16.7153 23.1248 16.5553 23.0635 16.4328 22.9423L13.9328 20.4423C13.6891 20.1985 13.6891 19.8023 13.9328 19.5585L16.4328 17.0585C16.6766 16.8148 17.0728 16.8148 17.3166 17.0585C17.5603 17.3023 17.5603 17.6985 17.3166 17.9423L15.2591 19.9998L17.3166 22.0573C17.5603 22.301 17.5603 22.6973 17.3166 22.941C17.1953 23.0635 17.0353 23.1248 16.8753 23.1248Z" fill="white"/>
</svg>
